<svg width="10" height="11" viewBox="0 0 10 11" fill="none" xmlns="http://www.w3.org/2000/svg">
<g clip-path="url(#clip0_143_2305)">
<path d="M4.99992 0.994629C2.23857 0.994629 0 3.23327 0 5.99455C0 8.75583 2.23857 10.9946 4.99992 10.9946C7.76126 10.9946 10 8.75583 10 5.99455C10 3.23327 7.76126 0.994629 4.99992 0.994629ZM7.16152 6.94553H5.04175C5.03458 6.94553 5.02792 6.9438 5.02082 6.94353C5.01372 6.94386 5.00708 6.94553 4.99988 6.94553C4.80891 6.94553 4.65408 6.79069 4.65408 6.59972V3.06963C4.65408 2.87866 4.80891 2.72382 4.99988 2.72382C5.19085 2.72382 5.34569 2.87866 5.34569 3.06963V6.25392H7.16139C7.35236 6.25392 7.50719 6.40875 7.50719 6.59972C7.50719 6.79069 7.35249 6.94553 7.16152 6.94553Z" fill="#1E71BE"/>
</g>
<defs>
<clipPath id="clip0_143_2305">
<rect width="10" height="10" fill="white" transform="translate(0 0.994629)"/>
</clipPath>
</defs>
</svg>
