<?xml version="1.0" encoding="utf-8"?>
<!-- Generator: Adobe Illustrator 23.0.5, SVG Export Plug-In . SVG Version: 6.00 Build 0)  -->
<svg version="1.1" id="Слой_1" xmlns="http://www.w3.org/2000/svg" xmlns:xlink="http://www.w3.org/1999/xlink" x="0px" y="0px"
	 viewBox="0 0 512 512" enable-background="new 0 0 512 512" xml:space="preserve">
<path fill="#1E71BE" d="M453.6,30.6c1.2,0.4,2.3,1.1,3.5,1.3c11.1,2.2,17.7,14,14.2,25.2c-0.9,2.9-2.8,5.6-4.9,7.9
	c-21.9,23.9-43.9,47.8-65.8,71.6c-15.6,16.9-31.3,33.8-46.9,50.7c-15.7,17-31.2,34.2-46.8,51.3c-5.3,5.8-6.5,12.9-6.5,20.3
	c0,38.8-0.2,77.7,0.1,116.5c0.1,8.2-2.4,14.9-7.7,20.9c-13,14.8-25.9,29.6-38.8,44.5c-6.6,7.6-13.2,15.2-19.8,22.8
	c-3.4,3.9-9.2,5.4-14.2,3.6c-4.7-1.7-8.2-6.3-8.3-11.3c-0.1-20.2-0.1-40.3-0.1-60.5c0-43.7-0.3-87.4,0.2-131.1
	c0.1-13.1-3.7-23.5-12.8-33.1c-21.5-22.5-42.3-45.7-63.4-68.6c-13.7-14.9-27.4-29.8-41.2-44.7c-16.3-17.7-32.7-35.3-49.1-53
	c-2.9-3.2-5-6.6-4.4-11.2c0.5-4-0.1-8.3,1.3-11.9c2.1-5.6,7-8.7,12.9-9.9c1.1-0.2,2.1-0.8,3.2-1.2C190.2,30.6,321.9,30.6,453.6,30.6
	z"/>
</svg>
