<svg width="15" height="16" viewBox="0 0 15 16" fill="none" xmlns="http://www.w3.org/2000/svg">
<path d="M10.8604 0.806641H4.13934C1.85691 0.806641 0 2.66364 0 4.94607V11.6671C0 13.9496 1.85691 15.8066 4.13934 15.8066H10.8604C13.143 15.8066 14.9999 13.9496 14.9999 11.6671V4.94607C15 2.66364 13.143 0.806641 10.8604 0.806641ZM13.6691 11.6671C13.6691 13.2158 12.4092 14.4757 10.8605 14.4757H4.13934C2.59075 14.4758 1.33086 13.2158 1.33086 11.6671V4.94607C1.33086 3.39748 2.59075 2.13751 4.13934 2.13751H10.8604C12.4091 2.13751 13.669 3.39748 13.669 4.94607V11.6671H13.6691Z" fill="black"/>
<path d="M7.49998 4.44189C5.36874 4.44189 3.63489 6.17575 3.63489 8.30699C3.63489 10.4382 5.36874 12.1719 7.49998 12.1719C9.63123 12.1719 11.3651 10.4382 11.3651 8.30699C11.3651 6.17575 9.63123 4.44189 7.49998 4.44189ZM7.49998 10.841C6.10267 10.841 4.96575 9.70422 4.96575 8.3069C4.96575 6.9095 6.10258 5.77267 7.49998 5.77267C8.89739 5.77267 10.0342 6.9095 10.0342 8.3069C10.0342 9.70422 8.8973 10.841 7.49998 10.841Z" fill="black"/>
<path d="M11.5271 3.31348C11.2707 3.31348 11.0188 3.41728 10.8377 3.59917C10.6558 3.78017 10.5511 4.03214 10.5511 4.28944C10.5511 4.54595 10.6558 4.79783 10.8377 4.97972C11.0187 5.16072 11.2707 5.26541 11.5271 5.26541C11.7844 5.26541 12.0355 5.16072 12.2174 4.97972C12.3993 4.79783 12.5031 4.54586 12.5031 4.28944C12.5031 4.03214 12.3993 3.78017 12.2174 3.59917C12.0364 3.41728 11.7844 3.31348 11.5271 3.31348Z" fill="black"/>
</svg>
