<svg width="31.000000000000004" height="21" xmlns="http://www.w3.org/2000/svg" fill="none">
 <defs>
  <clipPath id="clip0_262_6669">
   <rect id="svg_1" fill="white" height="31" width="31"/>
  </clipPath>
 </defs>
 <g>
  <title>Layer 1</title>
  <g id="svg_2" clip-path="url(#clip0_262_6669)">
   <path id="svg_3" fill="#285680" d="m30.9998,1.0849l0,19.24127c0.0017,0.1279 -0.022,0.2551 -0.0695,0.3741c-0.1424,0.3761 -0.4825,0.6419 -0.8819,0.6894c-0.0388,0.0045 -0.0783,0.0064 -0.1176,0.0052l-28.8617,0c-0.03926,0.0012 -0.07852,-0.0007 -0.11754,-0.0052c-0.39947,-0.0475 -0.73933,-0.3133 -0.88194,-0.6894c-0.04754,-0.119 -0.07119,-0.2462 -0.06954,-0.3741l0,-19.24127c-0.00165,-0.12795 0.022,-0.25519 0.06954,-0.37415c0.14261,-0.37605 0.48247,-0.64189 0.88194,-0.68943c0.03902,-0.00449 0.07828,-0.00638 0.11754,-0.0052l28.8617,0c0.0393,-0.00118 0.0788,0.00071 0.1176,0.0052c0.3994,0.04754 0.7395,0.31338 0.8819,0.68943c0.0475,0.11896 0.0712,0.2462 0.0695,0.37415z"/>
   <path id="svg_4" fill="#ECF0F1" d="m30.9998,1.0849c0.0017,-0.12795 -0.022,-0.25519 -0.0695,-0.37415c-0.1424,-0.37605 -0.4825,-0.64189 -0.8819,-0.68943c-0.0388,-0.00449 -0.0783,-0.00638 -0.1176,-0.0052l-1.753,0l-9.471,6.53125l0,-6.53125l-6.4137,0l0,6.53125l-9.47099,-6.53125l-1.75301,0c-0.03926,-0.00118 -0.07852,0.00071 -0.11754,0.0052c-0.39947,0.04754 -0.73933,0.31338 -0.88194,0.68943c-0.04754,0.11896 -0.07119,0.2462 -0.06954,0.37415l0,0.87651l8.02784,5.53716l-8.0276,0l0,6.4139l8.0224,0l-8.0224,5.5371l0,0.8766c-0.00189,0.1279 0.02176,0.2551 0.06953,0.3741c0.14238,0.3761 0.48224,0.6419 0.88171,0.6894c0.03902,0.0045 0.07828,0.0064 0.11778,0.0052l1.75301,0l9.47075,-6.5312l0,6.5312l6.4137,0l0,-6.5312l9.471,6.5312l1.753,0c0.0393,0.0012 0.0785,-0.0007 0.1176,-0.0052c0.3994,-0.0475 0.7393,-0.3133 0.8819,-0.6894c0.0475,-0.119 0.0712,-0.2462 0.0695,-0.3741l0,-0.8766l-8.0278,-5.5371l8.0278,0l0,-6.4139l-8.0226,0l8.0226,-5.53716l0,-0.87651z"/>
   <path id="svg_5" fill="#C03A2B" d="m30.9305,20.70057c-0.1424,0.3761 -0.4825,0.6419 -0.882,0.6894l-10.8444,-7.4772l1.8921,0l9.8343,6.7878z"/>
   <path id="svg_6" fill="#C03A2B" d="m11.7957,7.49887l-1.89207,0l-9.83429,-6.78781c0.14261,-0.37605 0.48248,-0.64189 0.88194,-0.68943l10.84442,7.47724z"/>
   <path id="svg_7" fill="#C03A2B" d="m30.9302,0.71106l-9.845,6.78781l-1.8762,0l10.8392,-7.47724c0.3995,0.04754 0.7396,0.31338 0.882,0.68943z"/>
   <path id="svg_8" fill="#C03A2B" d="m11.7905,13.91277l-10.83922,7.4772c-0.39946,-0.0475 -0.73933,-0.3133 -0.88194,-0.6894l9.84517,-6.7878l1.87599,0z"/>
   <path id="svg_9" fill="#C03A2B" d="m0,9.63687l30.9995,0l0,2.1378l-30.9995,0l0,-2.1378z"/>
   <path id="svg_10" fill="#C03A2B" d="m14.4307,0.01626l2.138,0l0,21.37881l-2.138,0l0,-21.37881z"/>
  </g>
 </g>
</svg>