<svg width="32" height="32" viewBox="0 0 32 32" fill="none" xmlns="http://www.w3.org/2000/svg">
<g clip-path="url(#clip0_128_2432)">
<path d="M22.75 2C21.4844 2.00147 20.2326 2.26221 19.0716 2.76614C17.9107 3.27007 16.8653 4.00649 16 4.93C14.7319 3.57655 13.0861 2.63559 11.2765 2.22926C9.4668 1.82293 7.57677 1.97001 5.85175 2.65139C4.12673 3.33278 2.64637 4.517 1.60287 6.05033C0.55937 7.58366 0.00091315 9.39528 0 11.25C0 20.46 14.855 29.5 15.5 29.855C15.6555 29.9484 15.8336 29.9978 16.015 29.9978C16.1964 29.9978 16.3745 29.9484 16.53 29.855C17.145 29.5 32 20.46 32 11.25C31.9974 8.79756 31.022 6.44632 29.2878 4.71219C27.5537 2.97805 25.2024 2.00265 22.75 2ZM16 27.82C13.415 26.17 2 18.46 2 11.25C2.00128 9.70997 2.49293 8.21036 3.40368 6.9685C4.31442 5.72664 5.59696 4.80704 7.06541 4.343C8.53387 3.87896 10.1119 3.89457 11.5709 4.38757C13.0299 4.88058 14.294 5.82536 15.18 7.085C15.2723 7.21602 15.3948 7.32294 15.537 7.39674C15.6793 7.47055 15.8372 7.50907 15.9975 7.50907C16.1578 7.50907 16.3157 7.47055 16.458 7.39674C16.6002 7.32294 16.7227 7.21602 16.815 7.085C17.7003 5.82319 18.9646 4.87637 20.4246 4.38198C21.8845 3.88759 23.464 3.87136 24.9338 4.33565C26.4036 4.79994 27.6872 5.72058 28.5982 6.96393C29.5092 8.20728 30.0002 9.70862 30 11.25C30 18.455 18.585 26.165 16 27.82Z" fill="white"/>
</g>
<defs>
<clipPath id="clip0_128_2432">
<rect width="32" height="32" fill="white"/>
</clipPath>
</defs>
</svg>
