<?xml version="1.0" encoding="utf-8"?>
<!-- Generator: Adobe Illustrator 23.0.5, SVG Export Plug-In . SVG Version: 6.00 Build 0)  -->
<svg version="1.1" id="Слой_1" xmlns="http://www.w3.org/2000/svg" xmlns:xlink="http://www.w3.org/1999/xlink" x="0px" y="0px"
	 viewBox="0 0 512 512" enable-background="new 0 0 512 512" xml:space="preserve">
<path fill="#1E71BE" d="M82.2,199.2C82.7,99.1,158.5,21.9,255.5,19.6c94.5-2.2,175.6,76.3,178.3,170.6c1.2,41.3-12.7,77.2-32,112
	c-37.4,67.8-83,129.9-132.7,189c-9.2,10.9-13,11.2-21.8,0.6c-56.6-67.7-108.9-138.4-147.7-218.2C87.8,249.3,81.2,223.7,82.2,199.2z
	 M257.8,290.6c51.8,0,95.1-42.8,95.1-94.3c0.1-51.4-43.2-94.7-94.9-94.7c-51.7,0-95,43-95.1,94.4
	C162.9,247.6,206.1,290.6,257.8,290.6z"/>
</svg>
