<?xml version="1.0" encoding="utf-8"?>
<!-- Generator: Adobe Illustrator 23.0.5, SVG Export Plug-In . SVG Version: 6.00 Build 0)  -->
<svg version="1.1" id="Слой_1" xmlns="http://www.w3.org/2000/svg" xmlns:xlink="http://www.w3.org/1999/xlink" x="0px" y="0px"
	 viewBox="0 0 512 512" enable-background="new 0 0 512 512" xml:space="preserve">
<path fill="#C4C4C4" d="M35.2,263.1c0.6-63.1,21.2-115.1,63.2-157.9c43.3-44.1,96.3-66.2,158.3-66.5
	c121.6-0.7,221.5,99.5,221.2,221.4c-0.2,122.2-98.9,221.3-221.7,221.3c-56.7,0-106.9-19.3-148.7-57.9
	C60,379.6,36.1,324.8,35.2,263.1z M256.2,446.2c102.7,1.1,186.4-84,186.9-185.2c0.4-103.8-83.5-187.7-185.9-187.8
	c-104.1,0-186.9,83.1-187.2,186.3C69.6,362.7,153.8,446.7,256.2,446.2z"/>
<path fill="#C4C4C4" d="M239.4,295.7c0.3-5.4-0.9-12.1,0.5-18.6c2.9-13.6,11.3-22,24.8-25.5c13.7-3.5,23.2-11.7,27.9-25.3
	c6.9-20-6-41.4-24.7-46.7c-9-2.6-18.1-2.6-26.7,1.3c-10.8,4.9-18.4,13-21.4,24.9c-0.5,2.1-0.9,4.2-0.9,6.3c0,1.8-0.7,2.6-2.6,2.6
	c-9.9,0-19.9,0-29.8,0c-2.3,0-2.6-1.2-2.6-3.1c0.2-10.3,2.8-19.9,7.5-29.1c5.6-11,13.5-20,23.6-26.9c7.7-5.3,16.2-9.1,25.4-10.9
	c5.4-1.1,10.8-2.2,16.4-2c14.3,0.4,27.6,4.3,39.6,12.2c12.3,8.1,21.3,19,27,32.5c2.8,6.6,4.4,13.4,5.2,20.6
	c1.7,15.7-1.8,30.1-9.6,43.4c-9.5,16.2-23.6,27-41.7,32.5c-2.3,0.7-3.4,1.8-3.3,4.4c0.1,8.3,0.1,16.6,0,25c0,3.4-0.5,3.9-3.9,3.9
	c-9.2,0-18.4-0.1-27.6,0.1c-2.6,0-3.4-0.9-3.4-3.5C239.5,308.2,239.4,302.6,239.4,295.7z"/>
<path fill="#C4C4C4" d="M256.5,351.2c4.8,0,9.7,0,14.5,0c2.4,0,3.3,1,3.3,3.4c-0.1,9.4,0,18.8,0,28.2c0,3.1-0.7,3.8-3.9,3.8
	c-9.3,0-18.6,0-27.9,0c-2.3,0-3.2-0.8-3.2-3.1c0.1-9.7,0.1-19.5,0-29.2c0-2.4,1-3.1,3.2-3C247.2,351.2,251.9,351.2,256.5,351.2z"/>
</svg>
