<svg width="10" height="10" viewBox="0 0 10 10" fill="none" xmlns="http://www.w3.org/2000/svg">
<path d="M9.7758 7.89749L8.23146 6.35297C7.92385 6.0466 7.41446 6.05591 7.09614 6.37435L6.31809 7.15222C6.26893 7.12513 6.21806 7.09683 6.16456 7.06681C5.67323 6.79457 5.00077 6.42143 4.29314 5.71329C3.58341 5.00364 3.20993 4.33014 2.93686 3.8385C2.90804 3.78641 2.88043 3.7362 2.85317 3.6885L3.37535 3.1671L3.63208 2.91006C3.95089 2.59116 3.95968 2.08191 3.65279 1.77465L2.10845 0.229959C1.80156 -0.0768692 1.29194 -0.0675609 0.973127 0.251334L0.537879 0.689082L0.549773 0.70089C0.403828 0.887113 0.281873 1.10189 0.191117 1.33351C0.107457 1.55398 0.0553713 1.76436 0.0315547 1.97518C-0.172366 3.66572 0.600164 5.21075 2.69671 7.30733C5.59477 10.2052 7.93023 9.98628 8.03099 9.97559C8.25042 9.94936 8.46072 9.89693 8.67443 9.81393C8.90404 9.72424 9.11867 9.60245 9.30478 9.45683L9.31429 9.46527L9.75523 9.0335C10.0734 8.71466 10.0825 8.20524 9.7758 7.89749Z" fill="#1E71BE"/>
</svg>
