<svg width="22" height="23" viewBox="0 0 22 23" fill="none" xmlns="http://www.w3.org/2000/svg">
<g clip-path="url(#clip0_143_2309)">
<path d="M11.0027 0.994629H10.9973C4.93213 0.994629 0 5.92813 0 11.9946C0 14.4009 0.7755 16.6311 2.09413 18.442L0.72325 22.5285L4.95138 21.1769C6.69075 22.3291 8.76562 22.9946 11.0027 22.9946C17.0679 22.9946 22 18.0598 22 11.9946C22 5.9295 17.0679 0.994629 11.0027 0.994629ZM17.4034 16.528C17.138 17.2774 16.0847 17.8989 15.2446 18.0804C14.6699 18.2028 13.9191 18.3004 11.3919 17.2526C8.15925 15.9134 6.0775 12.6285 5.91525 12.4154C5.75988 12.2023 4.609 10.676 4.609 9.0975C4.609 7.519 5.41063 6.75038 5.73375 6.42038C5.99913 6.1495 6.43775 6.02575 6.8585 6.02575C6.99462 6.02575 7.117 6.03263 7.227 6.03813C7.55013 6.05188 7.71237 6.07113 7.9255 6.58125C8.19087 7.22063 8.83712 8.79913 8.91412 8.96138C8.9925 9.12363 9.07088 9.34363 8.96088 9.55675C8.85775 9.77675 8.767 9.87438 8.60475 10.0614C8.4425 10.2484 8.2885 10.3914 8.12625 10.5921C7.97775 10.7668 7.81 10.9538 7.997 11.2769C8.184 11.5931 8.83025 12.6478 9.78175 13.4948C11.0096 14.5879 12.0051 14.9371 12.3612 15.0856C12.6266 15.1956 12.9429 15.1695 13.1367 14.9633C13.3829 14.6979 13.6867 14.2579 13.9961 13.8248C14.2161 13.514 14.4939 13.4755 14.7854 13.5855C15.0824 13.6886 16.654 14.4655 16.9771 14.6264C17.3003 14.7886 17.5134 14.8656 17.5917 15.0018C17.6687 15.1379 17.6687 15.7773 17.4034 16.528Z" fill="#1E71BE"/>
</g>
<defs>
<clipPath id="clip0_143_2309">
<rect width="22" height="22" fill="white" transform="translate(0 0.994629)"/>
</clipPath>
</defs>
</svg>
