<svg width="20" height="16" viewBox="0 0 20 16" fill="none" xmlns="http://www.w3.org/2000/svg">
<path d="M19.5933 3.17496C19.3084 2.11847 18.4745 1.28555 17.4199 1.00199C15.9193 0.591914 10.6014 0.580078 9.99994 0.580078C9.39893 0.580078 4.08464 0.591445 2.58742 0.984843C2.58472 0.985585 2.58207 0.986288 2.57941 0.98703C1.54109 1.27164 0.688241 2.1305 0.406601 3.17496C0.406249 3.1764 0.405859 3.17781 0.405468 3.17925C0.00460937 4.70034 0 7.68049 0 7.80663C0 7.93338 0.00460937 10.9289 0.40664 12.4383C0.691483 13.4948 1.52547 14.3277 2.58203 14.6118C4.09648 15.0213 9.40018 15.0332 9.99994 15.0332C10.601 15.0332 15.9153 15.0218 17.4125 14.6284C17.4139 14.628 17.4153 14.6276 17.4167 14.6272C18.4744 14.3429 19.3084 13.5099 19.5933 12.4535C19.7056 12.0369 19.4589 11.6081 19.0423 11.4958C18.6257 11.3835 18.197 11.6301 18.0847 12.0467C17.9444 12.5668 17.534 12.977 17.0131 13.1178C15.9065 13.4072 11.5761 13.4706 9.99994 13.4707C8.42784 13.4707 4.10378 13.4047 2.98882 13.1032C2.46699 12.9629 2.05566 12.5522 1.91586 12.0338C1.56703 10.7242 1.5625 7.83557 1.5625 7.80663C1.5625 7.0044 1.62597 4.68269 1.91578 3.58003C2.05605 3.06226 2.47679 2.63687 2.98874 2.49496C4.0987 2.20605 8.42475 2.14261 10 2.14258C11.5761 2.14258 15.9074 2.20843 17.0111 2.51007C17.5329 2.65035 17.9443 3.06101 18.0856 3.58484C18.3858 4.6803 18.4414 7.01198 18.4374 7.82174C18.4374 7.82366 18.4373 8.01526 18.4312 8.31819C18.4225 8.74955 18.7651 9.10631 19.1965 9.11506C19.2019 9.11518 19.2072 9.11522 19.2126 9.11522C19.6367 9.11522 19.9847 8.77573 19.9934 8.34975C19.9995 8.04452 19.9999 7.84905 19.9999 7.8242C20.0006 7.67647 20.0092 4.69265 19.5933 3.17496Z" fill="black"/>
<path d="M9.59585 4.51746C9.11871 4.24051 8.54851 4.23961 8.07047 4.51488C7.59098 4.79097 7.30469 5.28671 7.30469 5.84085V9.73298C7.30469 10.2872 7.59098 10.7829 8.07047 11.059C8.30871 11.1962 8.56988 11.2648 8.83097 11.2648C9.09379 11.2648 9.35656 11.1953 9.59585 11.0565L12.9495 9.11041C13.4263 8.83373 13.7109 8.33897 13.7109 7.78694C13.7109 7.23491 13.4263 6.7401 12.9495 6.46343L9.59585 4.51746ZM8.86718 9.67275V5.90108L12.1171 7.78694L8.86718 9.67275Z" fill="black"/>
</svg>
