<svg width="160" height="62" viewBox="0 0 160 62" fill="none" xmlns="http://www.w3.org/2000/svg">
<path d="M76.54 32.326H80.346V43.766H84.922V47H76.54V32.326ZM96.972 42.358V42.732H89.646C89.646 43.4213 89.8513 43.9713 90.262 44.382C90.5847 44.7047 91.0687 44.866 91.714 44.866C92.154 44.866 92.5353 44.778 92.858 44.602C93.1367 44.4407 93.342 44.2207 93.474 43.942H96.84C96.62 44.734 96.224 45.4087 95.652 45.966C94.7133 46.8753 93.3787 47.33 91.648 47.33C89.932 47.33 88.5753 46.8313 87.578 45.834C86.61 44.866 86.126 43.6267 86.126 42.116C86.126 40.532 86.6173 39.2633 87.6 38.31C88.5827 37.3567 89.9247 36.88 91.626 36.88C93.1953 36.88 94.4567 37.3273 95.41 38.222C96.4513 39.2193 96.972 40.598 96.972 42.358ZM89.756 40.708H93.738C93.6353 40.2827 93.4447 39.9307 93.166 39.652C92.814 39.3 92.33 39.124 91.714 39.124C91.1127 39.124 90.636 39.3 90.284 39.652C89.9907 39.9747 89.8147 40.3267 89.756 40.708ZM97.7949 37.166H101.733L104.087 42.204L106.485 37.166H110.401L105.275 47H102.877L97.7949 37.166ZM121.486 42.358V42.732H114.16C114.16 43.4213 114.365 43.9713 114.776 44.382C115.098 44.7047 115.582 44.866 116.228 44.866C116.668 44.866 117.049 44.778 117.372 44.602C117.65 44.4407 117.856 44.2207 117.988 43.942H121.354C121.134 44.734 120.738 45.4087 120.166 45.966C119.227 46.8753 117.892 47.33 116.162 47.33C114.446 47.33 113.089 46.8313 112.092 45.834C111.124 44.866 110.64 43.6267 110.64 42.116C110.64 40.532 111.131 39.2633 112.114 38.31C113.096 37.3567 114.438 36.88 116.14 36.88C117.709 36.88 118.97 37.3273 119.924 38.222C120.965 39.2193 121.486 40.598 121.486 42.358ZM114.27 40.708H118.252C118.149 40.2827 117.958 39.9307 117.68 39.652C117.328 39.3 116.844 39.124 116.228 39.124C115.626 39.124 115.15 39.3 114.798 39.652C114.504 39.9747 114.328 40.3267 114.27 40.708ZM123.519 30.962H127.039V47H123.519V30.962ZM134.562 37.166H138.082V42.666C138.082 43.2967 138.258 43.7733 138.61 44.096C138.888 44.3453 139.299 44.47 139.842 44.47C140.384 44.47 140.802 44.3307 141.096 44.052C141.433 43.7147 141.602 43.2527 141.602 42.666V37.166H145.122V43.304C145.122 44.4187 144.806 45.2987 144.176 45.944C143.281 46.868 141.866 47.33 139.93 47.33C137.847 47.33 136.366 46.8607 135.486 45.922C134.87 45.2767 134.562 44.404 134.562 43.304V37.166ZM151.058 46.054V52.038H147.538V37.166H151.058V38.244C151.806 37.3053 152.811 36.836 154.072 36.836C155.451 36.836 156.617 37.3127 157.57 38.266C158.567 39.2633 159.066 40.532 159.066 42.072C159.066 43.6413 158.538 44.9393 157.482 45.966C156.558 46.8753 155.436 47.33 154.116 47.33C152.899 47.33 151.879 46.9047 151.058 46.054ZM153.214 39.828C152.598 39.828 152.07 40.048 151.63 40.488C151.175 40.9427 150.948 41.4853 150.948 42.116C150.948 42.7027 151.175 43.2233 151.63 43.678C152.07 44.118 152.598 44.338 153.214 44.338C153.845 44.338 154.365 44.118 154.776 43.678C155.231 43.2233 155.458 42.7027 155.458 42.116C155.458 41.4853 155.231 40.9427 154.776 40.488C154.365 40.048 153.845 39.828 153.214 39.828Z" fill="#1E71BE"/>
<g clip-path="url(#clip0_147_14466)">
<path d="M83.7241 4.11021L76.2453 11.6137C76.1389 11.7209 76.1081 11.8806 76.1644 12.0223C76.2229 12.1625 76.3593 12.2533 76.5108 12.2533L80.6344 12.2533L80.6344 21.6251C80.6344 21.832 80.8023 22 81.0093 22L87.0073 22C87.2142 22 87.3822 21.832 87.3822 21.6251L87.3822 12.2532L91.49 12.2532C91.6415 12.2532 91.7779 12.1618 91.8364 12.0216C91.8559 11.9751 91.8649 11.9264 91.8649 11.8783C91.8649 11.7809 91.8267 11.6849 91.7554 11.6129L84.2549 4.10944C84.1845 4.03897 84.0892 3.99997 83.9895 3.99997C83.8898 4 83.7946 4.03975 83.7241 4.11021Z" fill="#1E71BE"/>
</g>
<g clip-path="url(#clip1_147_14466)">
<path d="M54.1046 18.2183C56.655 16.2805 59.4172 12.978 59.4172 7.75H54.2506C54.2506 11.8662 51.2972 14.0892 49.5328 15.0502C48.1291 14.2403 46.669 13.5325 45.1637 12.9322C47.3192 10.5939 49.0839 7.25465 49.0839 2.58333H43.9172C43.9172 6.20775 42.3692 9.0943 39.3238 11.1729C37.4318 10.7784 35.5133 10.5242 33.5839 10.4124V0H28.4172V10.4124C26.4878 10.5242 24.5693 10.7784 22.6774 11.1729C19.632 9.0943 18.0839 6.20775 18.0839 2.58333H12.9172C12.9172 7.25465 14.682 10.5939 16.8375 12.9322C15.3323 13.5323 13.8722 14.24 12.4687 15.0499C10.7127 14.0921 7.75057 11.8672 7.75057 7.75H2.58391C2.58391 12.978 5.34614 16.2805 7.89653 18.2183C2.7402 22.4634 0.450719 26.907 0.273438 27.2613L4.89438 29.5721C4.96509 29.4313 12.1487 15.5 31.0006 15.5C49.7255 15.5 56.8181 29.0053 57.1068 29.5721L61.7277 27.2613C61.5504 26.907 59.261 22.4634 54.1046 18.2183Z" fill="#1E71BE"/>
<path d="M30.9994 20.667C14.2293 20.667 5.8813 34.2592 5.53417 34.8379C5.29327 35.2394 5.16602 35.6988 5.16602 36.167C5.16602 36.6352 5.29327 37.0946 5.53417 37.4961C5.8813 38.0748 14.2293 51.667 30.9994 51.667C47.7694 51.667 56.1174 38.0748 56.4646 37.4961C56.7055 37.0946 56.8327 36.6352 56.8327 36.167C56.8327 35.6988 56.7055 35.2394 56.4646 34.8379C56.1174 34.2592 47.7694 20.667 30.9994 20.667ZM30.9994 49.0837C28.4447 49.0837 25.9474 48.3261 23.8233 46.9068C21.6991 45.4875 20.0436 43.4702 19.0659 41.11C18.0883 38.7498 17.8325 36.1527 18.3309 33.6471C18.8293 31.1415 20.0595 28.84 21.8659 27.0335C23.6723 25.2271 25.9739 23.9969 28.4795 23.4985C30.985 23.0001 33.5822 23.2559 35.9424 24.2335C38.3026 25.2112 40.3199 26.8667 41.7392 28.9909C43.1585 31.115 43.916 33.6123 43.916 36.167C43.9122 39.5915 42.5501 42.8747 40.1286 45.2962C37.7071 47.7177 34.4239 49.0798 30.9994 49.0837Z" fill="#1E71BE"/>
<path d="M33.5833 33.2604C35.0101 33.2604 36.1667 32.1038 36.1667 30.6771C36.1667 29.2503 35.0101 28.0938 33.5833 28.0938C32.1566 28.0938 31 29.2503 31 30.6771C31 32.1038 32.1566 33.2604 33.5833 33.2604Z" fill="#1E71BE"/>
</g>
<defs>
<clipPath id="clip0_147_14466">
<rect width="18" height="18" fill="white" transform="translate(75 22) rotate(-90)"/>
</clipPath>
<clipPath id="clip1_147_14466">
<rect width="62" height="62" fill="white"/>
</clipPath>
</defs>
</svg>
