<svg width="40" height="52" viewBox="0 0 40 52" fill="none" xmlns="http://www.w3.org/2000/svg">
<path d="M1.70543 5.93133L4.64037 3.94802C5.19023 4.51697 5.85191 5.0713 6.61687 5.60044L4.66769 8.3546L7.15393 10.1142L9.26835 7.12651C10.1416 7.54464 11.0561 7.90976 12.0006 8.21922L11.0384 11.5708L13.966 12.4112L14.9497 8.98449C16.0335 9.19553 17.1391 9.33721 18.2521 9.40495V13.1736H21.2981V9.40313C22.3681 9.33539 23.4336 9.19685 24.4813 8.9915L25.5448 12.4399L28.4555 11.5422L27.4309 8.21952C28.3629 7.91159 29.2684 7.5482 30.1367 7.1323L32.247 10.1141L34.7332 8.3545L32.7912 5.61039C33.5578 5.08461 34.228 4.53272 34.7903 3.96803L37.6955 5.93123L39.4009 3.40741L36.5255 1.46432C36.7201 0.967785 36.8221 0.476631 36.8221 0H33.7761C33.7761 0.667974 32.6035 2.27916 29.9963 3.76988C28.2747 4.75422 24.6576 6.40562 19.7753 6.40562C16.1706 6.40562 12.442 5.47064 9.54521 3.84027C6.77846 2.28322 5.77431 0.690724 5.77431 0.000101562H2.72836C2.72836 0.461295 2.81307 0.928684 2.97557 1.39678L0 3.40751L1.70543 5.93133Z" fill="#1E71BE"/>
<path d="M31.4709 37.3301C28.3147 37.3301 25.6179 39.334 24.5856 42.1362L21.5312 37.616L30.8102 23.86L30.8091 16.1413C27.6253 18.2533 23.8066 19.4847 19.6997 19.4847C15.5803 19.4847 11.7507 18.2459 8.56099 16.1221L8.56018 23.8608L17.8561 37.6177L14.8117 42.1309C13.7778 39.3315 11.0827 37.3303 7.92856 37.3303C3.88416 37.3303 0.59375 40.6206 0.59375 44.6651C0.59375 48.7096 3.88416 51.9999 7.92856 51.9999C10.4673 51.9999 12.7085 50.7029 14.0256 48.7373L14.0275 48.7404L19.6948 40.3386L25.3728 48.7414L25.3743 48.7379C26.6915 50.7032 28.9324 51.9998 31.4709 51.9998C35.5153 51.9998 38.8057 48.7095 38.8057 44.665C38.8057 40.6205 35.5153 37.3301 31.4709 37.3301ZM7.92856 48.9538C5.56369 48.9538 3.6397 47.0298 3.6397 44.665C3.6397 42.3001 5.56369 40.3761 7.92856 40.3761C10.2934 40.3761 12.2174 42.3001 12.2174 44.665C12.2174 47.0298 10.2934 48.9538 7.92856 48.9538ZM19.6925 34.8951L13.3772 25.5491C15.4877 26.4442 17.6265 26.8923 19.7568 26.8923C21.8447 26.8923 23.9244 26.4616 25.9613 25.6017L19.6925 34.8951ZM31.4709 48.9538C29.106 48.9538 27.182 47.0298 27.182 44.665C27.182 42.3001 29.106 40.3761 31.4709 40.3761C33.8357 40.3761 35.7597 42.3001 35.7597 44.665C35.7597 47.0298 33.8358 48.9538 31.4709 48.9538Z" fill="#1E71BE"/>
</svg>
