<svg width="81" height="63" viewBox="0 0 81 63" fill="none" xmlns="http://www.w3.org/2000/svg">
<path d="M17.5582 40.4029L20.2398 38.5963C20.7422 39.1146 21.3468 39.6195 22.0457 40.1015L20.2648 42.6103L22.5364 44.2131L24.4683 41.4916C25.2662 41.8725 26.1017 42.2051 26.9647 42.487L26.0856 45.5399L28.7605 46.3055L29.6593 43.1841C30.6496 43.3763 31.6597 43.5054 32.6767 43.5671V47H35.4597V43.5654C36.4374 43.5037 37.4109 43.3775 38.3682 43.1905L39.3399 46.3317L41.9993 45.5139L41.0632 42.4873C41.9148 42.2068 42.7421 41.8757 43.5355 41.4969L45.4636 44.213L47.7352 42.6102L45.9608 40.1106C46.6613 39.6316 47.2735 39.1289 47.7874 38.6145L50.4418 40.4028L52 38.1038L49.3728 36.3339C49.5506 35.8816 49.6437 35.4342 49.6437 35H46.8607C46.8607 35.6085 45.7893 37.0761 43.4071 38.434C41.8341 39.3307 38.5292 40.835 34.0683 40.835C30.7748 40.835 27.368 39.9833 24.7213 38.4981C22.1934 37.0798 21.2759 35.6292 21.2759 35.0001H18.4929C18.4929 35.4202 18.5703 35.8459 18.7187 36.2723L16 38.1039L17.5582 40.4029Z" fill="#1E71BE"/>
<path d="M77.9249 35.2048C78.5862 36.5277 78.1029 38.1367 76.8221 38.8762C75.5413 39.6157 73.9062 39.2297 73.0912 37.9955L70.0358 33.3683L75.4453 30.2451L77.9249 35.2048Z" fill="#1E71BE"/>
<path d="M62.0888 15.8502L59.9314 17.0958L58.6858 14.9384L60.8432 13.6928L59.5976 11.5354L57.4402 12.781L56.1946 10.6235L58.352 9.37795L57.1064 7.22051L54.949 8.46611L53.7034 6.30867L55.8608 5.06308L54.4845 2.67919L56.6419 1.4336L58.0183 3.81749L60.1757 2.57189L61.4213 4.72932L59.2639 5.97492L60.5095 8.13235L62.6669 6.88676L63.9125 9.04419L61.7551 10.2898L63.0007 12.4472L65.1581 11.2016L66.4037 13.3591L64.2463 14.6046L65.5811 16.9166L68.0641 15.483L74.3286 28.0132L68.6599 31.286L60.9406 19.5958L63.4236 18.1622L62.0888 15.8502Z" fill="#1E71BE"/>
<g clip-path="url(#clip0_147_14468)">
<path d="M54.9074 27.4001C54.9074 27.4001 54.3146 26.5392 53.0624 25.39C52.4504 24.7836 51.6475 24.1727 50.7092 23.4653C49.7532 22.8292 48.6678 22.0748 47.4104 21.4363C46.1567 20.7717 44.7654 20.1368 43.2483 19.617C41.7412 19.0225 40.0814 18.6738 38.3523 18.36C36.6151 18.1415 34.7813 18.1011 32.9327 18.1824C31.0777 18.3391 29.2235 18.3412 27.3545 18.568C25.4963 18.7239 23.6481 18.8935 21.8448 19.2514C20.9418 19.4085 20.0463 19.5344 19.1745 19.7276C18.31 19.9657 17.4534 20.2014 16.6133 20.4326C14.9314 20.8507 13.3466 21.387 11.884 22.0163C10.4061 22.5798 9.03573 23.1478 7.83487 23.8356C6.61958 24.4773 5.50569 25.0257 4.54813 25.576C3.63706 26.1977 2.83702 26.7372 2.17887 27.1813C0.895837 28.0795 0.162333 28.5938 0.162333 28.5938L0 29.1024C0.0745529 29.3381 0.327872 29.462 0.565961 29.383L0.613659 29.3654C0.613659 29.3654 1.44456 29.0824 2.90636 28.5858C3.62143 28.3353 4.49442 28.029 5.49006 27.6767C6.50254 27.3873 7.67494 27.1328 8.91989 26.8225C10.148 26.4682 11.5296 26.259 12.9874 26.0822C13.7013 25.9784 14.438 25.8662 15.1924 25.7548C15.9539 25.6734 16.7379 25.6538 17.5219 25.5964C18.31 25.5471 19.1052 25.4982 19.9108 25.4485C20.7217 25.4529 21.5438 25.4598 22.3679 25.4674C24.0044 25.4189 25.6803 25.562 27.3433 25.7079C30.6669 25.9411 33.8911 27.0346 36.9189 27.54C39.9604 28.0455 42.884 28.1869 45.4628 28.3284C48.051 28.4022 50.2795 28.4515 51.9137 28.3713C53.5398 28.3124 54.5391 28.2114 54.5391 28.2114L54.7844 28.1172C55.0124 27.9573 55.0701 27.6362 54.9074 27.4001Z" fill="#1E71BE"/>
</g>
<defs>
<clipPath id="clip0_147_14468">
<rect width="55" height="55" fill="white" transform="translate(0 8)"/>
</clipPath>
</defs>
</svg>
