<svg width="107" height="47" viewBox="0 0 107 47" fill="none" xmlns="http://www.w3.org/2000/svg">
<path d="M3.02988 33.5376L8.24413 30.0141C9.22101 31.0249 10.3965 32.0097 11.7556 32.9498L8.29266 37.8429L12.7097 40.9689L16.4662 35.661C18.0176 36.4039 19.6423 37.0525 21.3203 37.6023L19.6109 43.5567L24.8121 45.0498L26.5598 38.9619C28.4853 39.3369 30.4495 39.5886 32.4269 39.7089V46.4044H37.8383V39.7057C39.7394 39.5853 41.6324 39.3392 43.4938 38.9744L45.3831 45.1009L50.5542 43.506L48.734 37.6029C50.3898 37.0558 51.9984 36.4102 53.5412 35.6713L57.2903 40.9687L61.7073 37.8427L58.257 32.9675C59.6192 32.0334 60.8097 31.0529 61.8087 30.0496L66.9701 33.5375L70 29.0536L64.8915 25.6015C65.2372 24.7194 65.4184 23.8468 65.4184 23H60.0069C60.0069 24.1867 57.9236 27.0492 53.2916 29.6976C50.233 31.4464 43.8068 34.3803 35.1329 34.3803C28.7289 34.3803 22.1045 32.7192 16.9581 29.8226C12.0427 27.0564 10.2587 24.2271 10.2587 23.0002H4.84723C4.84723 23.8195 4.99772 24.6499 5.28642 25.4815L0 29.0538L3.02988 33.5376Z" fill="#1E71BE"/>
<path d="M98.6408 40.4671C99.9943 41.6671 102.048 41.6055 103.327 40.3265C104.606 39.0475 104.668 36.9935 103.468 35.6401L98.9685 30.5657L93.5664 35.9678L98.6408 40.4671Z" fill="#1E71BE"/>
<path d="M80.7871 15.6321L82.9415 13.4776L80.7871 11.3232L78.6326 13.4776L76.4781 11.3232L78.6326 9.16871L76.4781 7.01425L74.3237 9.16871L72.1692 7.01425L74.3237 4.85978L72.1692 2.70532L70.0147 4.85978L67.6341 2.47917L65.4796 4.63363L67.8603 7.01425L65.7058 9.16871L67.8603 11.3232L70.0147 9.16871L72.1692 11.3232L70.0147 13.4776L72.1692 15.6321L74.3237 13.4776L76.4781 15.6321L74.3237 17.7866L76.4781 19.941L78.6326 17.7866L80.9414 20.0954L78.4617 22.575L91.2817 33.9422L96.9426 28.2813L85.5754 15.4613L83.0959 17.9409L80.7871 15.6321Z" fill="#1E71BE"/>
</svg>
