<svg width="77" height="77" viewBox="0 0 77 77" fill="none" xmlns="http://www.w3.org/2000/svg">
<g clip-path="url(#clip0_147_14469)">
<path d="M76.8704 27.1594C76.8704 27.1594 76.0404 25.9541 74.2874 24.3452C73.4305 23.4962 72.3065 22.641 70.9929 21.6506C69.6545 20.76 68.1349 19.704 66.3746 18.81C64.6193 17.8796 62.6716 16.9908 60.5476 16.263C58.4377 15.4308 56.114 14.9426 53.6932 14.5032C51.2611 14.1974 48.6939 14.1407 46.1058 14.2546C43.5088 14.474 40.9129 14.4768 38.2963 14.7944C35.6948 15.0127 33.1073 15.2501 30.5827 15.7512C29.3184 15.9712 28.0648 16.1474 26.8443 16.4179C25.6339 16.7512 24.4348 17.0811 23.2586 17.4049C20.904 17.9902 18.6852 18.741 16.6376 19.622C14.5686 20.411 12.65 21.2062 10.9688 22.1691C9.26741 23.0675 7.70797 23.8351 6.36738 24.6056C5.09188 25.4759 3.97183 26.2313 3.05042 26.853C1.25417 28.1106 0.227266 28.8305 0.227266 28.8305L0 29.5426C0.104374 29.8726 0.459021 30.046 0.792345 29.9354L0.859122 29.9107C0.859122 29.9107 2.02239 29.5146 4.0689 28.8193C5.07 28.4686 6.29218 28.0398 7.68608 27.5466C9.10355 27.1414 10.7449 26.7851 12.4879 26.3508C14.2072 25.8547 16.1415 25.5618 18.1824 25.3143C19.1818 25.169 20.2132 25.0119 21.2693 24.8559C22.3355 24.742 23.4331 24.7145 24.5307 24.6342C25.6339 24.5652 26.7473 24.4967 27.8752 24.4272C29.0104 24.4333 30.1613 24.4429 31.315 24.4535C33.6062 24.3856 35.9524 24.586 38.2806 24.7902C42.9337 25.1168 47.4476 26.6476 51.6865 27.3552C55.9445 28.0629 60.0375 28.2609 63.648 28.459C67.2713 28.5623 70.3913 28.6313 72.6791 28.5191C74.9557 28.4366 76.3547 28.2952 76.3547 28.2952L76.6981 28.1633C77.0174 27.9394 77.0982 27.4899 76.8704 27.1594Z" fill="#1E71BE"/>
</g>
<path d="M27.2508 47.1044L31.1242 44.3944C31.8499 45.1718 32.7231 45.9293 33.7327 46.6523L31.1603 50.4155L34.4415 52.8197L37.2321 48.7374C38.3845 49.3088 39.5914 49.8076 40.838 50.2305L39.5681 54.8099L43.4319 55.9582L44.7302 51.2761C46.1605 51.5645 47.6196 51.7581 49.0885 51.8506V57H53.1085V51.8481C54.5207 51.7556 55.9269 51.5663 57.3097 51.2857L58.7132 55.9975L62.5546 54.7709L61.2024 50.2309C62.4325 49.8101 63.6274 49.3136 64.7734 48.7453L67.5585 52.8195L70.8397 50.4153L68.2767 46.6659C69.2885 45.9474 70.1729 45.1934 70.9151 44.4218L74.7492 47.1042L77 43.6558L73.2051 41.0008C73.4619 40.3223 73.5965 39.6513 73.5965 39H69.5766C69.5766 39.9127 68.029 42.1142 64.5881 44.151C62.316 45.496 57.5422 47.7524 51.0987 47.7524C46.3414 47.7524 41.4205 46.4749 37.5974 44.2472C33.946 42.1197 32.6207 39.9438 32.6207 39.0001H28.6008C28.6008 39.6303 28.7126 40.2689 28.9271 40.9085L25 43.6559L27.2508 47.1044Z" fill="#1E71BE"/>
<defs>
<clipPath id="clip0_147_14469">
<rect width="77" height="77" fill="white"/>
</clipPath>
</defs>
</svg>
