<svg width="62" height="62" viewBox="0 0 62 62" fill="none" xmlns="http://www.w3.org/2000/svg">
<g clip-path="url(#clip0_74_2733)">
<path d="M54.1046 18.2183C56.655 16.2805 59.4172 12.978 59.4172 7.75H54.2506C54.2506 11.8662 51.2972 14.0892 49.5328 15.0502C48.1291 14.2403 46.669 13.5325 45.1637 12.9322C47.3192 10.5939 49.0839 7.25465 49.0839 2.58333H43.9172C43.9172 6.20775 42.3692 9.0943 39.3238 11.1729C37.4318 10.7784 35.5133 10.5242 33.5839 10.4124V0H28.4172V10.4124C26.4878 10.5242 24.5693 10.7784 22.6774 11.1729C19.632 9.0943 18.0839 6.20775 18.0839 2.58333H12.9172C12.9172 7.25465 14.682 10.5939 16.8375 12.9322C15.3323 13.5323 13.8722 14.24 12.4687 15.0499C10.7127 14.0921 7.75057 11.8672 7.75057 7.75H2.58391C2.58391 12.978 5.34614 16.2805 7.89653 18.2183C2.7402 22.4634 0.450719 26.907 0.273438 27.2613L4.89438 29.5721C4.96509 29.4313 12.1487 15.5 31.0006 15.5C49.7255 15.5 56.8181 29.0053 57.1068 29.5721L61.7277 27.2613C61.5504 26.907 59.261 22.4634 54.1046 18.2183Z" fill="#1E71BE"/>
<path d="M30.9994 20.667C14.2293 20.667 5.8813 34.2592 5.53417 34.8379C5.29327 35.2394 5.16602 35.6988 5.16602 36.167C5.16602 36.6352 5.29327 37.0946 5.53417 37.4961C5.8813 38.0748 14.2293 51.667 30.9994 51.667C47.7694 51.667 56.1174 38.0748 56.4646 37.4961C56.7055 37.0946 56.8327 36.6352 56.8327 36.167C56.8327 35.6988 56.7055 35.2394 56.4646 34.8379C56.1174 34.2592 47.7694 20.667 30.9994 20.667ZM30.9994 49.0837C28.4447 49.0837 25.9474 48.3261 23.8233 46.9068C21.6991 45.4875 20.0436 43.4702 19.0659 41.11C18.0883 38.7498 17.8325 36.1527 18.3309 33.6471C18.8293 31.1415 20.0595 28.84 21.8659 27.0335C23.6723 25.2271 25.9739 23.9969 28.4795 23.4985C30.985 23.0001 33.5822 23.2559 35.9424 24.2335C38.3026 25.2112 40.3199 26.8667 41.7392 28.9909C43.1585 31.115 43.916 33.6123 43.916 36.167C43.9122 39.5915 42.5501 42.8747 40.1286 45.2962C37.7071 47.7177 34.4239 49.0798 30.9994 49.0837Z" fill="#1E71BE"/>
<path d="M33.5833 33.2604C35.0101 33.2604 36.1667 32.1038 36.1667 30.6771C36.1667 29.2503 35.0101 28.0938 33.5833 28.0938C32.1566 28.0938 31 29.2503 31 30.6771C31 32.1038 32.1566 33.2604 33.5833 33.2604Z" fill="#1E71BE"/>
</g>
<defs>
<clipPath id="clip0_74_2733">
<rect width="62" height="62" fill="white"/>
</clipPath>
</defs>
</svg>
