<svg width="26" height="11" viewBox="0 0 26 11" fill="none" xmlns="http://www.w3.org/2000/svg">
<path d="M0 0H26V11H0V0ZM0.856593 0.919098C0.856593 3.40103 0.856593 5.88296 0.856593 8.36489H16.1622C19.08 8.36489 21.9947 8.36854 24.911 8.36215C24.9062 5.88144 24.9062 3.40088 24.911 0.920466C22.4194 0.916363 19.9283 0.920466 17.4367 0.920466H0.856593V0.919098ZM5.06713 9.10254C4.95098 9.12708 4.845 9.17959 4.7612 9.25412C4.6774 9.32865 4.61913 9.42223 4.59299 9.52425C4.53515 9.75539 4.55703 10.0257 4.74513 10.2081C4.86184 10.328 5.04317 10.3827 5.21876 10.3927C5.43916 10.4087 5.68249 10.3823 5.85026 10.2437C6.04044 10.0959 6.07952 9.85751 6.06233 9.64643C6.05034 9.46407 5.95812 9.28171 5.7794 9.18141C5.57098 9.06379 5.30317 9.05695 5.06713 9.10071V9.10254ZM6.29523 9.1039C6.29784 9.52607 6.29523 9.94823 6.29523 10.3709H6.71988C6.71988 10.1429 6.71988 9.91495 6.71988 9.68472C6.90329 9.91267 7.07523 10.1443 7.25707 10.3722C7.39776 10.3722 7.53896 10.3722 7.68016 10.3722C7.68016 9.94915 7.68016 9.52561 7.68016 9.10208C7.53896 9.10208 7.39776 9.10208 7.25655 9.10208C7.25655 9.33277 7.25655 9.56391 7.25655 9.79505C7.07471 9.5671 6.89808 9.33368 6.71988 9.10208C6.57816 9.10208 6.43643 9.0998 6.29523 9.10208V9.1039ZM17.9942 9.24341C17.9362 9.30942 17.9088 9.39215 17.9175 9.47507C17.9262 9.55799 17.9703 9.63498 18.0411 9.69065C18.2042 9.81238 18.4267 9.82742 18.6215 9.88669C18.6981 9.90629 18.7664 9.97787 18.7289 10.0508C18.6768 10.1502 18.5204 10.1543 18.4162 10.1156C18.3334 10.0832 18.3037 10.0043 18.2839 9.93319C18.1416 9.93912 18.0004 9.94823 17.8587 9.95416C17.8743 10.0978 17.9494 10.2469 18.0968 10.3212C18.2568 10.3959 18.4454 10.3978 18.622 10.3918C18.7987 10.3859 18.9868 10.3275 19.0873 10.1958C19.2155 10.0408 19.2061 9.7946 19.0264 9.67287C18.8466 9.55114 18.6194 9.5361 18.4131 9.48276C18.361 9.47045 18.312 9.42714 18.3344 9.37881C18.3735 9.29584 18.498 9.29675 18.5809 9.32046C18.6637 9.34416 18.6851 9.41392 18.707 9.47501C18.8471 9.46954 18.9868 9.46042 19.1269 9.45404C19.1231 9.39712 19.1053 9.34159 19.0747 9.29124C19.0442 9.24089 19.0015 9.19689 18.9498 9.16226C18.7982 9.07108 18.6059 9.07108 18.4287 9.07701C18.2683 9.08339 18.0927 9.12579 17.9916 9.24341H17.9942ZM2.70838 9.10026C2.70838 9.52273 2.70838 9.94565 2.70838 10.369H3.07832C3.07832 10.0613 3.07363 9.75311 3.08144 9.44537C3.17731 9.75128 3.26224 10.0604 3.35186 10.3677C3.46545 10.3699 3.57852 10.3677 3.69158 10.3677C3.78068 10.0599 3.86717 9.75174 3.96148 9.44537C3.97138 9.75311 3.96148 10.0608 3.96565 10.3686H4.33507C4.33507 9.9455 4.33507 9.52242 4.33507 9.09935C4.13916 9.09935 3.94325 9.09935 3.74681 9.09935C3.6697 9.35374 3.60196 9.61041 3.52068 9.86389C3.44878 9.60859 3.37323 9.35419 3.29768 9.09935H2.71098L2.70838 9.10026ZM7.9782 9.09935V10.3681H9.19639V10.0782H8.42733V9.82742C8.65816 9.82742 8.88898 9.82742 9.1198 9.82742C9.1198 9.74171 9.1198 9.656 9.1198 9.56984H8.42733V9.36742C8.67587 9.36742 8.92493 9.36742 9.17347 9.36742C9.17816 9.27623 9.17711 9.18733 9.17659 9.09752C8.77678 9.09752 8.37731 9.09752 7.9782 9.09752V9.09935ZM9.2808 9.09752C9.45865 9.33246 9.63702 9.5668 9.81591 9.80052C9.83698 9.82441 9.84702 9.85435 9.84405 9.88441C9.84405 10.0449 9.84405 10.2035 9.84405 10.3658C9.99463 10.3658 10.1452 10.3658 10.2953 10.3658C10.2953 10.1903 10.2875 10.0139 10.2989 9.83882C10.4782 9.58807 10.6735 9.34599 10.8575 9.09798H10.3599C10.264 9.23885 10.1671 9.38018 10.0717 9.52197C9.97222 9.382 9.87896 9.23885 9.78204 9.09798H9.28184L9.2808 9.09752ZM11.5651 9.09798C11.5651 9.20283 11.5651 9.3086 11.5651 9.41392C11.7172 9.4162 11.8693 9.41392 12.0215 9.41392V10.3654H12.4706C12.4706 10.0463 12.4706 9.73031 12.4706 9.41301C12.6212 9.41301 12.7713 9.41301 12.9218 9.41301C12.9218 9.30769 12.9218 9.20238 12.9218 9.09752C12.4685 9.09251 12.0158 9.09752 11.5624 9.09752L11.5651 9.09798ZM13.1204 9.09752C13.1204 9.5206 13.1204 9.94368 13.1204 10.3668H13.5731C13.5731 10.194 13.5731 10.0216 13.5731 9.84885C13.6466 9.84611 13.7295 9.86116 13.767 9.92453C13.8644 10.07 13.9509 10.2209 14.0426 10.369C14.1786 10.369 14.3146 10.369 14.4506 10.369C14.4681 10.3715 14.4861 10.3704 14.5031 10.3658C14.5201 10.3612 14.5356 10.3533 14.5485 10.3426C14.3922 10.1657 14.3542 9.88942 14.0937 9.79824C14.1659 9.78563 14.2337 9.75829 14.2917 9.71846C14.485 9.58534 14.4813 9.28353 14.275 9.1618C14.1708 9.10299 14.0447 9.09798 13.9259 9.09524H13.1245L13.1204 9.09752ZM15.0894 9.09524C14.9133 9.50555 14.7413 9.91586 14.561 10.3262C14.561 10.3376 14.561 10.3613 14.5636 10.3718C14.7111 10.3604 14.8586 10.3686 15.006 10.3658C15.0289 10.297 15.0519 10.2291 15.0764 10.1602C15.2446 10.1602 15.4129 10.1602 15.5812 10.1602C15.6052 10.2268 15.6281 10.2934 15.649 10.3604C15.8053 10.3654 15.9653 10.3604 16.1231 10.3626C15.9428 9.93957 15.7622 9.51665 15.5812 9.09387C15.4171 9.09387 15.2535 9.09387 15.0894 9.09387V9.09524ZM16.256 10.3608C16.3977 10.3631 16.54 10.3608 16.6822 10.3608C16.6822 10.1329 16.6791 9.9072 16.6822 9.68108C16.8672 9.9031 17.036 10.137 17.2152 10.3608H17.6404C17.6404 9.93775 17.6404 9.51482 17.6404 9.09205C17.4987 9.09205 17.3575 9.09205 17.2158 9.09205C17.2158 9.32274 17.2158 9.55342 17.2158 9.78365C17.0362 9.55479 16.8587 9.32486 16.6832 9.09387C16.5415 9.08977 16.3998 9.09387 16.2586 9.09114C16.2555 9.51422 16.2586 9.93684 16.2586 10.3595L16.256 10.3608ZM19.3958 9.09205C19.3958 9.51452 19.3958 9.93744 19.3958 10.3608H19.8444V9.85477C20.0309 9.85477 20.218 9.85477 20.4051 9.85477C20.4051 9.76998 20.4051 9.68472 20.4051 9.59947H19.8418V9.37152H20.4978C20.4978 9.28034 20.4978 9.19235 20.4978 9.10299C20.1292 9.10299 19.7609 9.10299 19.3927 9.10299L19.3958 9.09205ZM20.7281 9.10299C20.7281 9.52561 20.7281 9.94778 20.7281 10.3704C21.1345 10.3704 21.5409 10.3704 21.9473 10.3704C21.9473 10.2737 21.9473 10.1771 21.9473 10.0804C21.6899 10.0804 21.432 10.0841 21.1751 10.0773C21.1778 9.99474 21.1778 9.91176 21.1783 9.82924C21.4091 9.82924 21.6404 9.82924 21.8718 9.82924C21.8718 9.74445 21.8718 9.6601 21.8718 9.57531C21.6394 9.56892 21.4065 9.57531 21.1741 9.5712C21.1741 9.50419 21.1741 9.43717 21.1767 9.36969C21.4258 9.36969 21.6754 9.36969 21.9249 9.36969C21.9249 9.27851 21.9249 9.19053 21.9249 9.10026C21.5253 9.10026 21.1257 9.10026 20.7265 9.10026L20.7281 9.10299ZM22.199 9.10026C22.199 9.52273 22.199 9.94565 22.199 10.369C22.3485 10.369 22.4981 10.369 22.6481 10.369C22.6481 10.1958 22.6481 10.0225 22.6481 9.8493C22.7169 9.85158 22.7977 9.86161 22.8352 9.91997C22.9394 10.0663 23.0202 10.2222 23.1186 10.3709C23.2869 10.3709 23.4552 10.3709 23.624 10.3709C23.5506 10.2478 23.4797 10.1238 23.4057 10.0011C23.3562 9.9141 23.2742 9.84446 23.1733 9.80371C23.2469 9.79008 23.3156 9.76097 23.3734 9.71891C23.5558 9.58488 23.5527 9.29857 23.3594 9.17411C23.2598 9.11166 23.1311 9.10527 23.0129 9.10163H22.2011L22.199 9.10026ZM7.84168 1.37226C8.07876 1.19902 8.40337 1.15845 8.70245 1.16164C8.97443 1.16164 9.26778 1.19264 9.48713 1.344C9.63876 1.44886 9.70597 1.62073 9.70649 1.78577C9.43486 1.78577 9.16305 1.78577 8.89106 1.78577C8.87699 1.72604 8.86136 1.65356 8.78685 1.62985C8.68264 1.60614 8.54822 1.60249 8.47423 1.67954C8.46372 1.69662 8.45787 1.7156 8.45713 1.73498C8.45638 1.75437 8.46078 1.77364 8.46996 1.7913C8.47914 1.80896 8.49286 1.82452 8.51005 1.83676C8.52724 1.84901 8.54744 1.85761 8.56906 1.8619C8.85563 1.94032 9.15888 1.97998 9.43086 2.09715C9.51073 2.13029 9.58136 2.17832 9.63779 2.23785C9.69422 2.29739 9.7351 2.367 9.75756 2.44181C9.818 2.6611 9.75756 2.91412 9.56321 3.07095C9.36886 3.22779 9.1 3.28249 8.84417 3.29891C8.5206 3.31897 8.17255 3.30164 7.88754 3.15256C7.67912 3.04451 7.57491 2.83343 7.57491 2.6301C7.866 2.6301 8.15744 2.6301 8.44922 2.6301C8.46329 2.69803 8.47527 2.77963 8.54978 2.8193C8.65086 2.86808 8.79936 2.86489 8.87804 2.78328C8.93691 2.72538 8.94108 2.61961 8.86188 2.57357C8.77435 2.52798 8.67066 2.51247 8.57427 2.48512C8.39764 2.43953 8.21892 2.39394 8.04385 2.34561C7.96302 2.3247 7.8881 2.28918 7.82393 2.24136C7.75976 2.19353 7.70777 2.13447 7.6713 2.06797C7.56709 1.83455 7.6192 1.53684 7.84429 1.37181L7.84168 1.37226ZM21.3622 1.18534C21.4555 1.18534 21.5487 1.18534 21.642 1.18534C21.642 2.68435 21.642 4.18305 21.642 5.68145C21.5482 5.68145 21.4544 5.68145 21.3606 5.68145C21.3606 4.18335 21.3606 2.68511 21.3606 1.18671L21.3622 1.18534ZM1.19214 1.2127C1.46413 1.21498 1.73663 1.2127 2.00862 1.2127C2.06072 1.52545 2.10397 1.83956 2.15399 2.15277C2.16676 2.26972 2.18852 2.38578 2.21912 2.50017C2.30353 2.07344 2.37074 1.64398 2.44056 1.21498C2.75788 1.20951 3.07571 1.21498 3.39355 1.2127C3.44044 1.50265 3.49098 1.79215 3.53944 2.0821C3.55841 2.22001 3.58554 2.35697 3.62072 2.49242C3.70409 2.06843 3.75828 1.64079 3.82393 1.21589C4.09643 1.21179 4.36946 1.21361 4.64249 1.21589C4.47888 1.8961 4.30485 2.57357 4.14228 3.25377C3.80934 3.25742 3.47639 3.25377 3.14345 3.25377C3.06581 2.81246 3.0085 2.36795 2.91888 1.92846C2.82353 2.3675 2.77299 2.81383 2.6891 3.25468C2.35667 3.25468 2.02425 3.25742 1.69234 3.2524C1.53238 2.57129 1.35471 1.89336 1.19214 1.2127ZM5.19687 1.2127C5.78739 1.2127 6.3779 1.2127 6.96842 1.2127C6.96842 1.38822 6.96842 1.56374 6.96842 1.73972C6.67142 1.73972 6.37443 1.73972 6.07796 1.73972C6.07796 1.81495 6.07535 1.89017 6.07483 1.96767C6.34994 1.96767 6.62557 1.96767 6.90068 1.96767C6.90329 2.14137 6.90068 2.31553 6.90068 2.48968C6.62557 2.49789 6.35046 2.48968 6.07535 2.49424C6.07535 2.57311 6.07535 2.65198 6.07535 2.73131C6.3812 2.73131 6.68705 2.73131 6.99291 2.73131C6.99291 2.90546 6.99291 3.07962 6.99291 3.25377C6.39214 3.25377 5.79451 3.25696 5.19166 3.25377C5.19166 2.57478 5.19166 1.89564 5.19166 1.21635L5.19687 1.2127ZM10.2869 1.75613C10.2869 1.57377 10.2833 1.39506 10.2869 1.21498C10.9773 1.21817 11.6677 1.21224 12.3581 1.21817C12.3549 1.3978 12.3612 1.57788 12.3539 1.7575C12.1627 1.7575 11.972 1.7575 11.7808 1.7575C11.7766 2.25626 11.7808 2.75501 11.7776 3.25332C11.4728 3.25742 11.1685 3.25332 10.8637 3.25332C10.8637 2.7541 10.8637 2.25489 10.8637 1.75613C10.6715 1.75613 10.4797 1.75613 10.288 1.75385L10.2869 1.75613ZM12.9745 1.21407C13.5648 1.21407 14.1552 1.21407 14.746 1.21407C14.746 1.38959 14.7491 1.56511 14.746 1.74063C14.4485 1.74063 14.151 1.74063 13.8535 1.74063C13.8535 1.81631 13.8535 1.89154 13.8535 1.96858C14.1265 1.9663 14.3995 1.96858 14.6725 1.9663C14.6793 2.14137 14.6725 2.31644 14.6757 2.4915C14.4016 2.49789 14.1275 2.49378 13.8535 2.49378C13.8509 2.57357 13.8535 2.65335 13.8535 2.73268C14.1604 2.73268 14.4673 2.73268 14.7747 2.73268C14.7747 2.90729 14.7783 3.0819 14.7715 3.25651C14.1723 3.25149 13.5731 3.25651 12.9739 3.25286C12.9739 2.57357 12.9739 1.89427 12.9739 1.21498L12.9745 1.21407ZM15.4453 1.21498C15.8663 1.21498 16.2883 1.21498 16.7093 1.21498C16.913 1.21498 17.1261 1.21771 17.3147 1.28701C17.3874 1.3122 17.4518 1.35274 17.5021 1.405C17.5525 1.45727 17.5873 1.51964 17.6034 1.58654C17.6394 1.74291 17.6279 1.92482 17.5028 2.05019C17.4153 2.14411 17.2804 2.18696 17.1527 2.2207C17.2569 2.24668 17.3731 2.25854 17.4513 2.33057C17.5555 2.41628 17.5685 2.54986 17.5878 2.66748C17.6074 2.86564 17.6448 3.06214 17.6998 3.25514C17.4007 3.25514 17.1011 3.26152 16.802 3.25104C16.7499 3.0664 16.727 2.87765 16.6942 2.69028C16.6838 2.64469 16.676 2.59089 16.628 2.56262C16.5457 2.51703 16.4425 2.52706 16.3487 2.52433C16.3487 2.76778 16.3487 3.01123 16.3487 3.25377C16.0476 3.25377 15.7469 3.25696 15.4458 3.25377C15.4458 2.57448 15.4458 1.89518 15.4458 1.21589L15.4453 1.21498ZM16.3529 1.67726C16.3529 1.80719 16.3529 1.93758 16.3529 2.06797C16.4681 2.06569 16.6056 2.07299 16.69 1.99092C16.7614 1.91388 16.7624 1.77483 16.6629 1.7151C16.5697 1.66951 16.4582 1.68045 16.3555 1.67726H16.3529ZM18.3412 1.21589C18.7084 1.21589 19.0754 1.21589 19.4422 1.21589C19.5927 1.59292 19.7454 1.96858 19.8944 2.34561C19.9094 2.38108 19.9281 2.41526 19.9502 2.44774C19.9679 2.03743 19.9502 1.62711 19.958 1.2168C20.205 1.21407 20.4525 1.2168 20.6994 1.2168C20.6994 1.89701 20.6994 2.57676 20.6994 3.25605C20.3311 3.25605 19.9622 3.25924 19.5933 3.25605C19.4708 2.93282 19.3374 2.61277 19.2124 2.29045C19.1802 2.1965 19.1392 2.10501 19.0899 2.01691C19.0785 2.42996 19.0899 2.84346 19.0847 3.25696C18.8367 3.26061 18.5887 3.25696 18.3407 3.25696C18.3407 2.57721 18.3407 1.89792 18.3407 1.21771L18.3412 1.21589ZM24.1816 1.22273C24.2203 1.20988 24.2616 1.20407 24.3029 1.20568C24.3443 1.20728 24.3849 1.21625 24.4221 1.23204C24.4594 1.24783 24.4926 1.27011 24.5197 1.29751C24.5468 1.32492 24.5672 1.35687 24.5796 1.39141C24.6437 1.5528 24.4832 1.74428 24.2858 1.73152C24.2395 1.7306 24.1941 1.72044 24.153 1.7018C24.1119 1.68315 24.0763 1.65653 24.0487 1.62397C24.0212 1.5914 24.0026 1.55376 23.9943 1.51393C23.986 1.47409 23.9882 1.43312 24.0008 1.39415C24.0146 1.35568 24.038 1.32037 24.0692 1.29073C24.1005 1.2611 24.1388 1.23787 24.1816 1.22273ZM24.2071 1.24644C24.1477 1.26463 24.0976 1.30069 24.0657 1.3482C24.0338 1.39571 24.0223 1.45157 24.0331 1.50584C24.0378 1.53661 24.0496 1.56621 24.0678 1.59284C24.086 1.61947 24.1103 1.64257 24.139 1.66071C24.1678 1.67885 24.2005 1.69166 24.2352 1.69834C24.2698 1.70503 24.3056 1.70546 24.3405 1.6996C24.4931 1.68 24.5833 1.52773 24.5406 1.40327C24.5313 1.37333 24.5152 1.34537 24.4931 1.32108C24.4711 1.2968 24.4436 1.2767 24.4124 1.26202C24.3812 1.24734 24.3469 1.23839 24.3116 1.23571C24.2763 1.23303 24.2407 1.23668 24.2071 1.24644ZM23.4401 5.67917C23.4401 4.19658 23.4401 2.71398 23.4401 1.23139C23.5313 1.23139 23.623 1.23139 23.7152 1.23139C23.7257 2.71398 23.7152 4.19475 23.7199 5.67917C23.6261 5.67917 23.5323 5.67917 23.4391 5.67917H23.4401ZM24.1758 1.31756C24.2597 1.32485 24.3603 1.29795 24.4322 1.34673C24.4843 1.41238 24.4171 1.47621 24.3446 1.49217C24.3812 1.53507 24.4147 1.57983 24.4452 1.6262C24.3327 1.61572 24.3467 1.45615 24.218 1.4753C24.2045 1.52454 24.2488 1.60614 24.18 1.63076C24.1722 1.52636 24.1758 1.42196 24.1758 1.31756ZM24.217 1.34263C24.217 1.37956 24.217 1.41603 24.217 1.45296C24.2785 1.44293 24.3733 1.47347 24.4046 1.40737C24.4103 1.31619 24.2806 1.34947 24.216 1.34081L24.217 1.34263ZM16.1685 3.63354C16.5082 3.59114 16.8802 3.61211 17.1741 3.78125C17.4195 3.91802 17.5721 4.15509 17.6258 4.40036C17.6684 4.59882 17.6661 4.80265 17.619 5.00033C17.5697 5.22536 17.4279 5.42679 17.2204 5.56656C16.975 5.7243 16.6593 5.77035 16.3612 5.75713C16.0528 5.74619 15.736 5.64908 15.5276 5.438C15.3056 5.21461 15.2347 4.90642 15.2499 4.61737C15.2608 4.36298 15.3468 4.09947 15.551 3.91118C15.7161 3.76089 15.9334 3.66263 16.169 3.63171L16.1685 3.63354ZM16.3962 4.14871C16.2919 4.1674 16.2497 4.26907 16.2315 4.35158C16.1943 4.55939 16.1911 4.77078 16.2221 4.97936C16.2378 5.06279 16.2581 5.15944 16.344 5.21096C16.4305 5.25199 16.5613 5.24105 16.615 5.16172C16.6651 5.07516 16.6918 4.97972 16.6931 4.88271C16.7065 4.72993 16.7037 4.5764 16.6848 4.42407C16.6718 4.34429 16.6572 4.25858 16.5962 4.19612C16.5705 4.17363 16.5384 4.15755 16.5033 4.14954C16.4681 4.14152 16.4311 4.14187 16.3962 4.15053V4.14871ZM7.54521 3.66727C7.8495 3.66727 8.15379 3.66727 8.45808 3.66727C8.46172 4.1136 8.45808 4.56039 8.45808 5.00671C8.45463 5.04394 8.46211 5.08132 8.4798 5.11531C8.49749 5.14929 8.5248 5.17877 8.55916 5.20093C8.59789 5.21924 8.64288 5.22471 8.68586 5.21634C8.72883 5.20796 8.76691 5.1863 8.79311 5.15534C8.82698 5.10248 8.84238 5.04208 8.83739 4.98164C8.83739 4.54397 8.83479 4.10585 8.83739 3.66773C9.1422 3.66773 9.44701 3.66773 9.75182 3.66773C9.75495 4.08078 9.75182 4.49428 9.75182 4.90733C9.74922 5.02677 9.75443 5.14987 9.71118 5.26521C9.68226 5.34634 9.63446 5.42135 9.5708 5.48553C9.50713 5.54971 9.42897 5.60167 9.34124 5.63814C9.06717 5.7585 8.74986 5.76944 8.44922 5.75257C8.20589 5.73433 7.9511 5.67826 7.76561 5.53055C7.6896 5.46557 7.63002 5.38736 7.59071 5.30098C7.55139 5.2146 7.53323 5.12196 7.5374 5.02905C7.5374 4.57315 7.53479 4.12181 7.5374 3.66819L7.54521 3.66727ZM10.5073 3.66819C10.8721 3.66819 11.2404 3.66819 11.6078 3.66819C11.7802 4.08123 11.9334 4.50066 12.1127 4.91143C12.1392 4.49793 12.1194 4.08306 12.1257 3.66864C12.3721 3.66864 12.6191 3.66864 12.8656 3.66864C12.868 4.34854 12.868 5.02829 12.8656 5.70789C12.4977 5.70789 12.1299 5.71108 11.762 5.70561C11.6359 5.39514 11.5145 5.08331 11.3895 4.77238C11.3532 4.66726 11.3079 4.5647 11.254 4.46556C11.2389 4.87952 11.254 5.29439 11.2472 5.70835H10.5152C10.5105 5.0286 10.5152 4.34885 10.5152 3.6691L10.5073 3.66819ZM13.6414 3.6691C13.9467 3.6691 14.2521 3.6691 14.5579 3.6691C14.5579 4.349 14.5579 5.0286 14.5579 5.70789C14.2526 5.70789 13.9467 5.71291 13.6414 5.7047C13.6414 5.02632 13.6414 4.34809 13.6414 3.67001V3.6691ZM18.3454 3.67001C18.7101 3.67001 19.0748 3.6732 19.4396 3.66773C19.5891 4.00236 19.7131 4.34566 19.8527 4.68348C19.8856 4.75323 19.896 4.83393 19.957 4.89137C19.9721 4.48425 19.957 4.07667 19.9653 3.66955C20.2112 3.66955 20.4577 3.66955 20.7036 3.66955C20.7036 4.34824 20.7036 5.02693 20.7036 5.70561C20.3347 5.71017 19.9658 5.71154 19.598 5.70561C19.4359 5.2953 19.2744 4.8818 19.1056 4.47194C19.0871 4.544 19.0813 4.6181 19.0884 4.69169C19.0884 5.03088 19.0884 5.36992 19.0884 5.7088C18.8409 5.7088 18.5929 5.71199 18.3454 5.7088C18.3454 5.02996 18.3412 4.35067 18.3454 3.67138V3.67001ZM13.5731 9.35921C13.6831 9.36286 13.7972 9.34599 13.904 9.37425C13.927 9.3837 13.9463 9.39871 13.9598 9.41751C13.9733 9.43631 13.9803 9.45811 13.98 9.4803C13.9798 9.50249 13.9722 9.52415 13.9583 9.54269C13.9443 9.56123 13.9246 9.57587 13.9014 9.58488C13.7972 9.61725 13.6831 9.60859 13.5737 9.61041C13.5737 9.52652 13.5737 9.4431 13.5737 9.35921H13.5731ZM22.6502 9.35921C22.7591 9.3624 22.8706 9.34736 22.9774 9.37289C22.9998 9.3814 23.019 9.39513 23.033 9.41257C23.047 9.43001 23.0553 9.45048 23.0569 9.47176C23.0585 9.49303 23.0534 9.51428 23.0422 9.53319C23.0309 9.55209 23.0139 9.56793 22.9931 9.57895C22.8852 9.61953 22.7643 9.60859 22.6502 9.60996V9.35921ZM5.20156 9.38748C5.26036 9.36677 5.32517 9.36304 5.38656 9.37681C5.44794 9.39059 5.5027 9.42116 5.54285 9.46407C5.60954 9.54385 5.61683 9.64643 5.61683 9.74308C5.61683 9.83973 5.60537 9.94048 5.53764 10.0194C5.41988 10.1488 5.1479 10.1283 5.06557 9.97604C5.01209 9.85559 4.9996 9.72417 5.02962 9.59764C5.03498 9.55257 5.05366 9.5095 5.0838 9.47265C5.11395 9.4358 5.15453 9.40645 5.20156 9.38748ZM15.328 9.44765C15.3916 9.59126 15.4322 9.74126 15.4885 9.88806H15.1759C15.228 9.7408 15.2759 9.594 15.3285 9.44765H15.328Z" fill="#FEDF00"/>
<path d="M0.855469 0.919336H17.4345C19.9261 0.919336 22.4172 0.917057 24.9089 0.919336C24.9089 3.40005 24.9089 5.88061 24.9089 8.36102C21.991 8.36741 19.0763 8.36102 16.16 8.36376H0.855469C0.855469 5.88183 0.855469 3.3999 0.855469 0.917969V0.919336ZM7.84056 1.3725C7.6139 1.53754 7.56284 1.83524 7.66757 2.06866C7.70403 2.13516 7.75603 2.19423 7.8202 2.24205C7.88437 2.28987 7.95929 2.32539 8.04012 2.34631C8.21519 2.39691 8.3939 2.43749 8.57054 2.48582C8.66693 2.51317 8.77062 2.5273 8.85815 2.57426C8.93735 2.61985 8.93318 2.72608 8.87431 2.78397C8.79563 2.86467 8.64713 2.86877 8.54605 2.81999C8.47154 2.78033 8.45956 2.69872 8.44549 2.63079C8.15405 2.63079 7.86262 2.63079 7.57118 2.63079C7.57118 2.83549 7.67904 3.04521 7.8838 3.15326C8.16882 3.30234 8.51687 3.31966 8.84044 3.2996C9.09627 3.28182 9.36461 3.22483 9.55948 3.07165C9.75435 2.91847 9.81427 2.66134 9.75383 2.4425C9.73137 2.36769 9.69049 2.29808 9.63406 2.23855C9.57763 2.17901 9.507 2.13099 9.42713 2.09784C9.15515 1.98068 8.85399 1.94101 8.56533 1.8626C8.54371 1.85831 8.52351 1.8497 8.50632 1.83746C8.48913 1.82521 8.47541 1.80965 8.46623 1.79199C8.45705 1.77434 8.45265 1.75506 8.45339 1.73568C8.45414 1.71629 8.45999 1.69732 8.4705 1.68024C8.54657 1.60319 8.68152 1.60684 8.78312 1.63054C8.85711 1.65425 8.87274 1.72674 8.88733 1.78646C9.15932 1.78646 9.43113 1.78646 9.70276 1.78646C9.70276 1.62142 9.63503 1.44955 9.4834 1.34469C9.26404 1.19242 8.9707 1.15914 8.69871 1.16233C8.39964 1.15914 8.07346 1.19972 7.83795 1.37296L7.84056 1.3725ZM21.3611 1.18558C21.3573 2.68368 21.3573 4.18192 21.3611 5.68032C21.4549 5.68032 21.5487 5.68032 21.6424 5.68032C21.6424 4.18131 21.6424 2.68261 21.6424 1.18422C21.5492 1.18422 21.4559 1.18422 21.3626 1.18422L21.3611 1.18558ZM1.19415 1.2102C1.35671 1.89086 1.53439 2.56879 1.69435 3.24991C2.02625 3.25492 2.35867 3.24991 2.6911 3.25219C2.77499 2.81133 2.82553 2.365 2.92088 1.92597C3.0105 2.36546 3.06781 2.80996 3.14545 3.25127C3.47839 3.25127 3.81134 3.25401 4.14429 3.25127C4.30685 2.57107 4.48088 1.8936 4.64449 1.21339C4.37146 1.21339 4.09843 1.2102 3.82593 1.21339C3.76028 1.63966 3.70609 2.0673 3.62272 2.48992C3.58754 2.35447 3.56041 2.21751 3.54144 2.07961C3.49298 1.78965 3.44244 1.50015 3.39555 1.2102C3.07771 1.2102 2.75988 1.20701 2.44256 1.21248C2.36962 1.64148 2.30397 2.07231 2.21956 2.49904C2.18895 2.38465 2.1672 2.26859 2.15443 2.15164C2.10232 1.83843 2.0596 1.52432 2.00906 1.21157C1.73707 1.21157 1.46457 1.21157 1.19258 1.21157L1.19415 1.2102ZM5.19731 1.21157C5.19731 1.89086 5.19731 2.57 5.19731 3.24899C5.79807 3.25447 6.39571 3.24899 6.99855 3.24899C6.99855 3.07484 6.99855 2.90069 6.99855 2.72653C6.6927 2.72653 6.38685 2.72653 6.081 2.72653C6.07839 2.6472 6.07735 2.56833 6.081 2.48946C6.35611 2.48582 6.63122 2.49311 6.90633 2.4849C6.90633 2.31075 6.90633 2.13659 6.90633 1.9629C6.63122 1.96016 6.35559 1.9629 6.08048 1.9629C6.08048 1.88722 6.08048 1.81199 6.0836 1.73494C6.38008 1.73494 6.67707 1.73494 6.97407 1.73494C6.97407 1.55897 6.97407 1.38344 6.97407 1.20792C6.38355 1.20792 5.79304 1.20792 5.20252 1.20792L5.19731 1.21157ZM10.2978 1.74771C10.4895 1.75181 10.6813 1.74771 10.8735 1.74999C10.8761 2.24875 10.8735 2.74796 10.8735 3.24717C11.1784 3.24717 11.4826 3.24991 11.7875 3.24717C11.7921 2.74887 11.7875 2.25011 11.7906 1.75136C11.9818 1.75136 12.1725 1.75136 12.3637 1.75136C12.371 1.57173 12.3637 1.39165 12.3679 1.21203C11.6775 1.2061 10.9871 1.21202 10.2968 1.20883C10.2926 1.38891 10.2968 1.56945 10.2968 1.74999L10.2978 1.74771ZM12.9832 1.2102C12.9832 1.8895 12.9832 2.56879 12.9832 3.24808C13.5824 3.25401 14.1816 3.24808 14.7808 3.25173C14.7876 3.07712 14.7808 2.90251 14.784 2.7279C14.4766 2.7279 14.1697 2.7279 13.8628 2.7279C13.8628 2.64857 13.8602 2.56879 13.8628 2.48901C14.1368 2.48901 14.4109 2.49311 14.685 2.48673C14.685 2.31166 14.6886 2.13659 14.6818 1.96153C14.4088 1.96472 14.1358 1.96153 13.8628 1.96381C13.8628 1.88813 13.8628 1.8129 13.8628 1.73586C14.1603 1.73586 14.4578 1.73586 14.7553 1.73586C14.7595 1.56033 14.7553 1.38481 14.7553 1.20929C14.165 1.20929 13.5746 1.20929 12.9838 1.20929L12.9832 1.2102ZM15.4551 1.20929C15.4551 1.88858 15.4551 2.56788 15.4551 3.24717C15.7562 3.25127 16.0569 3.24945 16.358 3.24717C16.358 3.00372 16.358 2.76027 16.358 2.51773C16.4518 2.52046 16.555 2.50861 16.6373 2.55602C16.6852 2.58429 16.6931 2.63809 16.7035 2.68368C16.7363 2.87105 16.7613 3.0598 16.8113 3.24444C17.1104 3.25492 17.41 3.24717 17.7091 3.24854C17.6541 3.05554 17.6167 2.85904 17.5971 2.66088C17.5778 2.54326 17.5663 2.40968 17.4606 2.32397C17.3824 2.25194 17.2652 2.24008 17.162 2.2141C17.2897 2.17945 17.4225 2.13751 17.5121 2.04359C17.6372 1.91822 17.6487 1.73631 17.6127 1.57994C17.5966 1.51304 17.5618 1.45067 17.5114 1.3984C17.4611 1.34613 17.3967 1.3056 17.324 1.28041C17.1333 1.21111 16.9223 1.20747 16.7186 1.20838C16.2976 1.20838 15.8755 1.20838 15.4545 1.20838L15.4551 1.20929ZM18.3474 1.20838C18.3448 1.88858 18.3474 2.56788 18.3474 3.24763C18.5954 3.24763 18.8434 3.25036 19.0914 3.24763C19.0951 2.83412 19.0852 2.42062 19.0966 2.00757C19.1459 2.09568 19.1869 2.18716 19.2191 2.28111C19.3441 2.60344 19.4796 2.92348 19.6 3.24672C19.9689 3.25127 20.3378 3.24672 20.7061 3.24672C20.7061 2.56681 20.7061 1.88706 20.7061 1.20747C20.4592 1.20747 20.2117 1.20519 19.9647 1.20747C19.959 1.61778 19.9746 2.02809 19.9569 2.4384C19.9347 2.40593 19.9161 2.37174 19.9011 2.33628C19.7521 1.95925 19.5994 1.58359 19.4489 1.20655C19.082 1.20655 18.7151 1.20655 18.3479 1.20655L18.3474 1.20838ZM24.1888 1.21157C24.1461 1.22671 24.1077 1.24994 24.0764 1.27957C24.0452 1.30921 24.0218 1.34452 24.008 1.38299C23.9954 1.42196 23.9932 1.46293 24.0015 1.50277C24.0098 1.5426 24.0284 1.58024 24.056 1.61281C24.0835 1.64537 24.1191 1.672 24.1602 1.69064C24.2013 1.70928 24.2467 1.71944 24.293 1.72036C24.4905 1.73312 24.6509 1.54164 24.5869 1.38025C24.5744 1.34571 24.554 1.31376 24.5269 1.28635C24.4998 1.25895 24.4666 1.23667 24.4293 1.22088C24.3921 1.20509 24.3515 1.19612 24.3102 1.19452C24.2688 1.19292 24.2275 1.19872 24.1888 1.21157ZM23.4473 5.66801C23.5406 5.66801 23.6344 5.66801 23.7282 5.66801C23.725 4.18542 23.7339 2.70465 23.7235 1.22023C23.6313 1.22023 23.5396 1.22023 23.4484 1.22023C23.4442 2.70282 23.4442 4.18542 23.4484 5.66801H23.4473ZM16.1673 3.63378C15.9327 3.66517 15.7164 3.7634 15.552 3.91324C15.3477 4.10153 15.2618 4.36504 15.2508 4.61944C15.2357 4.90757 15.3066 5.21576 15.5285 5.44006C15.7323 5.65023 16.0496 5.74734 16.3622 5.75919C16.6602 5.77241 16.976 5.72637 17.2214 5.56862C17.4299 5.42924 17.5726 5.22776 17.6226 5.00239C17.6697 4.80471 17.672 4.60088 17.6294 4.40243C17.5773 4.15715 17.421 3.91917 17.1776 3.78331C16.8838 3.61417 16.5117 3.5932 16.172 3.6356L16.1673 3.63378ZM7.54877 3.66934C7.54461 4.12296 7.54877 4.57658 7.54877 5.0302C7.54461 5.12311 7.56278 5.21575 7.60209 5.30213C7.6414 5.38851 7.70098 5.46672 7.77699 5.53169C7.96248 5.67941 8.21727 5.73548 8.4606 5.75372C8.76124 5.77059 9.07855 5.75965 9.35262 5.63929C9.44035 5.60282 9.51851 5.55086 9.58218 5.48668C9.64584 5.4225 9.69364 5.34749 9.72256 5.26636C9.76581 5.15102 9.7606 5.02792 9.7632 4.90848C9.7632 4.49543 9.7632 4.08193 9.7632 3.66888C9.45839 3.66888 9.15358 3.66888 8.84877 3.66888C8.84356 4.107 8.84877 4.54512 8.84877 4.98279C8.85376 5.04323 8.83836 5.10363 8.80449 5.15649C8.77829 5.18746 8.74021 5.20912 8.69724 5.21749C8.65426 5.22586 8.60927 5.22039 8.57054 5.20208C8.53618 5.17992 8.50886 5.15044 8.49117 5.11646C8.47348 5.08247 8.46601 5.04509 8.46946 5.00786C8.46633 4.56154 8.46946 4.11475 8.46946 3.66842C8.16517 3.66842 7.86088 3.66842 7.55659 3.66842L7.54877 3.66934ZM10.5265 3.66842C10.5265 4.34817 10.5234 5.02792 10.5265 5.70767H11.2654C11.2701 5.29371 11.257 4.87884 11.2721 4.46488C11.3261 4.56402 11.3714 4.66659 11.4076 4.77171C11.5327 5.08263 11.6541 5.39447 11.7802 5.70494C12.148 5.71041 12.5159 5.70494 12.8837 5.70722C12.8837 5.02732 12.8837 4.34757 12.8837 3.66797C12.6373 3.66797 12.3903 3.66797 12.1438 3.66797C12.1376 4.08238 12.1574 4.49725 12.1308 4.91076C11.9516 4.50044 11.7984 4.08056 11.6259 3.66751C11.2612 3.66751 10.8923 3.66751 10.5255 3.66751L10.5265 3.66842ZM13.6517 3.66751C13.6517 4.34589 13.6517 5.02412 13.6517 5.7022C13.9571 5.71041 14.2629 5.70494 14.5683 5.70539C14.5683 5.0261 14.5683 4.3465 14.5683 3.6666C14.2624 3.6666 13.9571 3.6666 13.6517 3.6666V3.66751ZM18.3557 3.6666C18.3495 4.34589 18.3526 5.02519 18.3557 5.70403C18.6032 5.70858 18.8512 5.70403 19.0987 5.70403C19.0987 5.36483 19.0987 5.0258 19.0987 4.68691C19.0916 4.61332 19.0974 4.53922 19.1159 4.46716C19.2847 4.87748 19.4462 5.28779 19.6083 5.70084C19.9761 5.70767 20.345 5.70631 20.7139 5.70084C20.7139 5.02245 20.7139 4.34377 20.7139 3.66478C20.468 3.66478 20.2216 3.66478 19.9756 3.66478C19.9657 4.0719 19.9824 4.47947 19.9673 4.88659C19.9074 4.82915 19.8969 4.74982 19.8631 4.6787C19.7234 4.34088 19.5994 3.99759 19.4499 3.66295C19.0852 3.66842 18.7204 3.66295 18.3557 3.66523V3.6666ZM24.22 1.23847C24.2537 1.22871 24.2892 1.22506 24.3245 1.22774C24.3598 1.23042 24.3942 1.23937 24.4254 1.25405C24.4566 1.26873 24.484 1.28883 24.5061 1.31312C24.5281 1.3374 24.5442 1.36537 24.5535 1.3953C24.5962 1.51976 24.5061 1.67203 24.3534 1.69163C24.3186 1.69749 24.2828 1.69707 24.2481 1.69038C24.2135 1.68369 24.1808 1.67088 24.152 1.65274C24.1232 1.6346 24.0989 1.61151 24.0807 1.58488C24.0625 1.55825 24.0507 1.52864 24.046 1.49788C24.0352 1.44361 24.0468 1.38774 24.0786 1.34023C24.1105 1.29272 24.1606 1.25666 24.22 1.23847ZM24.1898 1.30959C24.1898 1.41399 24.1862 1.51839 24.194 1.62279C24.2628 1.59817 24.2185 1.51657 24.232 1.46733C24.3607 1.44818 24.3466 1.60775 24.4592 1.61823C24.4287 1.57186 24.3951 1.5271 24.3586 1.4842C24.4311 1.46824 24.4967 1.40442 24.4462 1.33877C24.3743 1.28998 24.2737 1.31688 24.1898 1.30959ZM24.231 1.33466C24.2956 1.34333 24.4253 1.3105 24.4196 1.40122C24.3878 1.46551 24.2935 1.43496 24.232 1.44681C24.232 1.40989 24.232 1.37341 24.232 1.33649L24.231 1.33466ZM16.3575 1.6734C16.4617 1.67659 16.5717 1.66565 16.6649 1.71124C16.7644 1.77096 16.7634 1.91001 16.692 1.98706C16.6076 2.06912 16.4701 2.06183 16.3549 2.06411C16.358 1.93372 16.3549 1.80333 16.3549 1.6734H16.3575ZM16.3924 4.14712C16.4274 4.13846 16.4644 4.13811 16.4995 4.14613C16.5347 4.15414 16.5668 4.17022 16.5925 4.19271C16.6535 4.25654 16.6681 4.34225 16.6811 4.42066C16.7 4.57299 16.7028 4.72652 16.6894 4.8793C16.6881 4.97631 16.6613 5.07175 16.6113 5.15831C16.5592 5.23764 16.4268 5.24949 16.3403 5.20755C16.2543 5.15603 16.2361 5.05938 16.2184 4.97595C16.1874 4.76737 16.1905 4.55598 16.2278 4.34817C16.246 4.26566 16.2861 4.16581 16.3924 4.1453V4.14712ZM5.06601 9.10141C5.30204 9.05582 5.56986 9.06448 5.77827 9.1821C5.95543 9.2824 6.04922 9.46658 6.0612 9.64712C6.07839 9.8582 6.03932 10.0966 5.84914 10.2444C5.68136 10.3811 5.43803 10.4094 5.21763 10.3934C5.04204 10.3834 4.86072 10.3287 4.74401 10.2088C4.55591 10.0264 4.53559 9.75289 4.59186 9.52494C4.61801 9.42292 4.67628 9.32934 4.76008 9.25481C4.84388 9.18028 4.94986 9.12777 5.06601 9.10323V9.10141ZM5.19992 9.38954C5.15289 9.40851 5.1123 9.43786 5.08216 9.47471C5.05201 9.51156 5.03334 9.55464 5.02797 9.59971C4.99796 9.72623 5.01044 9.85765 5.06393 9.97811C5.14625 10.1304 5.41823 10.1509 5.53599 10.0214C5.60372 9.94255 5.60998 9.83906 5.61519 9.74514C5.6204 9.65122 5.60789 9.54591 5.5412 9.46613C5.50105 9.42322 5.4463 9.39265 5.38491 9.37888C5.32352 9.3651 5.25871 9.36883 5.19992 9.38954ZM6.29411 9.10642C6.43531 9.10277 6.57703 9.10414 6.71875 9.10642C6.89695 9.33802 7.07358 9.57053 7.25543 9.79939C7.25543 9.56825 7.25543 9.33711 7.25543 9.10642C7.39663 9.10642 7.53783 9.10642 7.67904 9.10642C7.68268 9.52995 7.67904 9.95349 7.67904 10.3766C7.53783 10.3766 7.39663 10.3766 7.25595 10.3766C7.07411 10.1486 6.90216 9.91565 6.71875 9.68906C6.71875 9.91701 6.71875 10.145 6.71875 10.3752H6.29411C6.29411 9.95258 6.29411 9.53041 6.29411 9.10824V9.10642ZM17.9931 9.24957C18.0941 9.13195 18.2697 9.08955 18.4302 9.08317C18.6063 9.07724 18.7986 9.07907 18.9513 9.16842C19.003 9.20306 19.0456 9.24705 19.0762 9.29741C19.1068 9.34776 19.1246 9.40328 19.1284 9.4602C18.9883 9.46658 18.8486 9.4757 18.7085 9.48117C18.6866 9.42008 18.6595 9.34851 18.5824 9.32662C18.5052 9.30474 18.3739 9.302 18.3359 9.38498C18.3135 9.4333 18.3646 9.47616 18.4146 9.48892C18.623 9.54409 18.8512 9.56004 19.0279 9.67903C19.2045 9.79802 19.217 10.0469 19.0888 10.202C18.9846 10.3337 18.7996 10.3912 18.6235 10.398C18.4474 10.4048 18.2588 10.4021 18.0983 10.3273C17.9509 10.253 17.8758 10.1039 17.8602 9.96033C18.0019 9.9544 18.1431 9.94528 18.2854 9.93935C18.3052 10.0105 18.3349 10.0893 18.4177 10.1217C18.5193 10.1605 18.6751 10.1564 18.7303 10.057C18.7679 9.98586 18.6996 9.91246 18.623 9.89285C18.4281 9.83358 18.2062 9.81854 18.0426 9.69681C17.9718 9.64114 17.9277 9.56415 17.919 9.48123C17.9103 9.39832 17.9377 9.31559 17.9957 9.24957H17.9931ZM2.71246 9.10642H3.30176C3.37731 9.36127 3.45286 9.61566 3.52477 9.87097C3.60605 9.61749 3.67379 9.36081 3.7509 9.10642C3.94733 9.10642 4.14324 9.10642 4.33916 9.10642C4.33916 9.5295 4.33916 9.95257 4.33916 10.3757H3.96974C3.96661 10.0679 3.97547 9.76018 3.96557 9.45245C3.87126 9.75882 3.78477 10.067 3.69567 10.3747C3.5826 10.3747 3.46954 10.3747 3.35595 10.3747C3.26633 10.0675 3.1814 9.75836 3.08553 9.45245C3.07771 9.76018 3.08553 10.0684 3.0824 10.3761H2.71246C2.71246 9.95303 2.71246 9.53011 2.71246 9.10733V9.10642ZM7.97968 9.10733C8.37914 9.10733 8.77861 9.10733 9.17807 9.10733C9.17807 9.19851 9.17807 9.28696 9.17495 9.37723C8.92641 9.37449 8.67735 9.37723 8.42881 9.37723V9.57418H9.12284C9.12284 9.66034 9.12284 9.74605 9.12284 9.83176C8.89202 9.83176 8.6612 9.83176 8.43038 9.83176V10.0825H9.19527V10.3725H7.97603V9.10277L7.97968 9.10733ZM9.27864 9.10277H9.77883C9.87575 9.24365 9.96902 9.3868 10.0685 9.52676C10.1639 9.38498 10.2608 9.24365 10.3567 9.10277H10.8543C10.6703 9.35079 10.4749 9.59287 10.2957 9.84361C10.2842 10.0187 10.2931 10.1951 10.2921 10.3706C10.142 10.3729 9.99142 10.3706 9.84084 10.3706C9.84084 10.2102 9.84084 10.0515 9.84084 9.8892C9.84381 9.85915 9.83377 9.82921 9.8127 9.80532C9.63381 9.57099 9.45544 9.33665 9.27759 9.10232L9.27864 9.10277ZM11.5608 9.10232C12.0141 9.10232 12.4669 9.09913 12.9202 9.10232C12.9171 9.20718 12.9202 9.31249 12.9202 9.4178C12.7696 9.4178 12.6196 9.4178 12.469 9.4178C12.4658 9.73693 12.469 10.0529 12.469 10.3702H12.0198V9.42008C11.8677 9.42008 11.7155 9.42008 11.5634 9.42008C11.5634 9.31477 11.5634 9.209 11.5634 9.10414L11.5608 9.10232ZM13.1213 9.10414H13.9222C14.041 9.10688 14.1686 9.11189 14.2713 9.1707C14.4797 9.29243 14.4797 9.59424 14.2879 9.72736C14.23 9.76719 14.1622 9.79453 14.0899 9.80714C14.3505 9.89832 14.3885 10.1746 14.5448 10.3515C14.5319 10.3622 14.5163 10.3701 14.4994 10.3747C14.4824 10.3793 14.4644 10.3804 14.4469 10.3779C14.3109 10.3779 14.1749 10.3779 14.0389 10.3779C13.9472 10.2298 13.8607 10.0789 13.7632 9.93343C13.7262 9.87006 13.6429 9.85501 13.5694 9.85775C13.5694 10.0305 13.5694 10.2029 13.5694 10.3757H13.1208C13.1208 9.95257 13.1208 9.5295 13.1208 9.10642L13.1213 9.10414ZM13.5694 9.36355C13.5694 9.44744 13.5694 9.53087 13.5694 9.61475C13.6788 9.61475 13.7924 9.62159 13.8972 9.58922C13.9203 9.58021 13.9401 9.56557 13.954 9.54703C13.9679 9.52849 13.9755 9.50683 13.9758 9.48464C13.9761 9.46245 13.969 9.44065 13.9556 9.42185C13.9421 9.40305 13.9227 9.38804 13.8998 9.37859C13.7929 9.35033 13.6788 9.3672 13.5689 9.36355H13.5694ZM15.0851 9.10733C15.2493 9.10733 15.4129 9.10733 15.577 9.10733C15.7573 9.53041 15.9379 9.95333 16.1189 10.3761C15.9626 10.3761 15.8026 10.3788 15.6447 10.3738C15.6239 10.3068 15.601 10.2402 15.577 10.1737C15.4087 10.1737 15.2404 10.1737 15.0721 10.1737C15.0476 10.2421 15.0247 10.3105 15.0018 10.3793C14.8543 10.382 14.7069 10.3738 14.5594 10.3852C14.5594 10.3734 14.5594 10.3497 14.5568 10.3396C14.7371 9.92933 14.909 9.51901 15.0851 9.1087V9.10733ZM15.3232 9.45336C15.2711 9.59971 15.219 9.74651 15.1706 9.89376H15.4832C15.4285 9.74696 15.3863 9.59697 15.3227 9.45336H15.3232ZM16.2512 10.3757C16.2543 9.95303 16.2512 9.53041 16.2512 9.10733C16.3924 9.10733 16.5341 9.10733 16.6759 9.11007C16.8495 9.34167 17.0271 9.57159 17.2084 9.79985C17.212 9.56962 17.2084 9.33893 17.2084 9.10824C17.3501 9.10824 17.4913 9.10824 17.633 9.10824C17.633 9.53071 17.633 9.95364 17.633 10.377H17.2079C17.0286 10.1513 16.8598 9.92112 16.6748 9.69727C16.6701 9.92522 16.6748 10.15 16.6748 10.377C16.5326 10.377 16.3903 10.377 16.2486 10.377L16.2512 10.3757ZM19.3858 9.10961C19.754 9.10961 20.1224 9.10961 20.4909 9.10961C20.4909 9.20079 20.4909 9.28878 20.4909 9.37814H19.8407V9.60609H20.4003C20.4003 9.69134 20.4003 9.7766 20.4003 9.86139C20.2132 9.86504 20.0262 9.86139 19.8396 9.86139V10.3779H19.3921C19.3921 9.95485 19.3921 9.53193 19.3921 9.10916L19.3858 9.10961ZM20.7275 9.10916C21.1266 9.10596 21.5262 9.10916 21.9259 9.10916C21.9259 9.20034 21.9259 9.28878 21.9259 9.37859C21.6763 9.37859 21.4267 9.37859 21.1777 9.37859C21.1777 9.44607 21.1777 9.51309 21.1751 9.5801C21.4075 9.58466 21.6404 9.5801 21.8727 9.58421C21.8701 9.669 21.8701 9.75335 21.8727 9.83814C21.6414 9.83814 21.4101 9.83814 21.1792 9.83814C21.1792 9.92066 21.1792 10.0036 21.1761 10.0862C21.433 10.093 21.6909 10.0862 21.9483 10.0893C21.9483 10.186 21.9483 10.2826 21.9483 10.3793C21.5419 10.3793 21.1355 10.3793 20.7291 10.3793C20.7291 9.95668 20.7291 9.53451 20.7291 9.11189L20.7275 9.10916ZM22.2015 9.11189H23.0154C23.1337 9.11554 23.2624 9.12192 23.3619 9.18438C23.5552 9.30884 23.5583 9.59469 23.3759 9.72918C23.3181 9.77124 23.2494 9.80035 23.1759 9.81398C23.2767 9.85473 23.3587 9.92437 23.4083 10.0114C23.4822 10.134 23.5531 10.258 23.6266 10.3811C23.4578 10.3811 23.2895 10.3811 23.1212 10.3811C23.0227 10.2325 22.9398 10.0766 22.8377 9.93024C22.8002 9.87188 22.7194 9.86185 22.6507 9.85957C22.6507 10.0328 22.6507 10.2061 22.6507 10.3793C22.5006 10.3793 22.3511 10.3793 22.2015 10.3793C22.2015 9.95622 22.2015 9.5333 22.2015 9.11052V9.11189ZM22.6501 9.3672V9.61794C22.7642 9.61794 22.8851 9.62752 22.993 9.58694C23.0138 9.57592 23.0308 9.56008 23.0421 9.54118C23.0533 9.52227 23.0584 9.50102 23.0568 9.47975C23.0552 9.45847 23.047 9.438 23.0329 9.42056C23.0189 9.40312 22.9997 9.38939 22.9774 9.38087C22.8705 9.35534 22.759 9.37039 22.6501 9.3672Z" fill="#181818"/>
</svg>
