<svg width="24" height="11" viewBox="0 0 24 11" fill="none" xmlns="http://www.w3.org/2000/svg">
<path d="M13.9354 0C12.6443 0 11.6016 1.03433 11.6016 2.31493C11.6016 3.59552 12.6443 4.62985 13.9354 4.62985C15.2264 4.62985 16.2692 3.59552 16.2692 2.31493C16.2857 1.03433 15.2264 0 13.9354 0Z" fill="#FF6E00"/>
<path d="M16.2522 2.01968C16.186 1.90476 16.1198 1.80625 16.0205 1.72416C15.3584 1.08386 14.117 1.24804 13.2563 2.11819C12.6605 2.70924 12.4122 3.46446 12.5115 4.10476C12.5281 3.56297 12.7929 2.9555 13.2729 2.46297C14.1501 1.59282 15.3915 1.42864 16.0536 2.06894C16.1363 2.15103 16.2191 2.26595 16.2853 2.36446C16.2853 2.34804 16.2853 2.31521 16.2853 2.29879C16.2853 2.18386 16.2688 2.0361 16.2522 2.01968ZM12.8426 1.65849C13.7694 0.739086 15.1598 0.624161 15.9708 1.41222C16.037 1.47789 16.1032 1.55998 16.1694 1.64207C16.1032 1.3958 15.9377 1.08386 15.7557 0.87043C14.9281 0.246549 13.6536 0.410728 12.7929 1.26446C12.1639 1.90476 11.9157 2.75849 12.0812 3.48088C12.0646 2.84058 12.3294 2.16744 12.8426 1.65849Z" fill="white"/>
<path d="M10.8225 4.21945C10.7563 3.95676 10.6074 3.74333 10.3922 3.57915C10.177 3.41497 9.89563 3.30004 9.53149 3.21795C9.18391 3.15228 8.77011 3.10303 8.30666 3.10303H2.97701L2.89425 3.4478C2.89425 3.4478 3.3577 3.57915 3.20873 4.17019L1.50391 10.8194H4.48322L5.16184 8.209H5.82391C6.00598 8.209 6.17149 8.22542 6.30391 8.27467C6.43632 8.32392 6.51908 8.42243 6.56873 8.60303C6.60184 8.71795 6.60184 8.88213 6.60184 9.06273C6.58529 9.25974 6.56873 9.45676 6.55218 9.67019C6.51908 9.88363 6.48597 10.0971 6.46942 10.2941C6.43632 10.4911 6.41977 10.6717 6.41977 10.803H9.77977L9.86253 10.4583C9.86253 10.4583 9.53149 10.3926 9.51494 9.99855C9.53149 9.80154 9.54804 9.65377 9.54804 9.44034C9.5646 9.19407 9.58115 8.9478 9.58115 8.70153C9.58115 8.45527 9.54804 8.24183 9.49839 8.0284C9.41563 7.81497 9.28322 7.65079 9.1177 7.50303C8.95218 7.35527 8.70391 7.25676 8.40597 7.20751V7.19109C9.00184 7.05974 9.49839 6.82989 9.92873 6.51795C10.3591 6.18959 10.6405 5.74631 10.7894 5.15527C10.8887 4.79407 10.8887 4.48213 10.8225 4.21945ZM7.6777 5.63139C7.62804 5.8284 7.54529 5.99258 7.44598 6.09109C7.34666 6.20601 7.2308 6.2881 7.11494 6.33736C6.98253 6.40303 6.85011 6.43586 6.70115 6.45228C6.55218 6.4687 6.40322 6.4687 6.2377 6.4687H5.59218L6.02253 4.82691H6.7177C6.86666 4.82691 7.01563 4.84333 7.14804 4.85974C7.28046 4.87616 7.39632 4.909 7.49563 4.97467C7.59494 5.02392 7.66115 5.10601 7.69425 5.20452C7.72735 5.30303 7.72736 5.45079 7.6777 5.63139Z" fill="#0039A6"/>
<path d="M21.6491 7.257C22.1622 5.12267 20.2422 4.82715 18.6201 4.82715C17.5111 4.82715 16.998 4.92566 16.1042 5.15551L15.6739 6.7973C16.3028 6.51819 17.0808 6.30476 17.7594 6.30476C18.4711 6.30476 19.2325 6.38685 19.067 7.14207C18.8187 7.12566 18.3718 7.05998 17.9746 7.05998C16.5511 7.05998 14.8297 7.42118 14.3994 9.22715C14.1015 10.4585 15.0449 10.951 16.1539 10.951C16.9649 10.951 17.776 10.6391 18.3387 9.96595H18.3553L18.1401 10.8033H21.2684L21.3511 10.4749C21.3511 10.4749 20.9208 10.3271 21.0201 9.85103L21.6491 7.257ZM18.7525 8.43909C18.6366 8.94804 18.2063 9.48983 17.627 9.48983C17.1801 9.48983 16.998 9.32566 17.0973 8.93163C17.2463 8.32416 17.9415 8.27491 18.5208 8.27491H18.8022L18.7525 8.43909Z" fill="#0039A6"/>
<path d="M13.5903 9.75235C13.5903 9.73593 13.6069 9.71951 13.6069 9.70309L14.7324 5.25384C14.3848 5.53294 13.9545 5.69712 13.4745 5.71354C12.8786 5.71354 12.349 5.46727 11.9848 5.07324L10.5117 10.8195H13.8221L13.9048 10.4747C13.9048 10.4747 13.4745 10.4091 13.5903 9.75235Z" fill="#0039A6"/>
<path d="M21.5664 9.71959C21.5664 9.52258 21.7319 9.3584 21.9305 9.3584C22.1292 9.3584 22.2947 9.52258 22.2947 9.71959C22.2947 9.91661 22.1292 10.0808 21.9305 10.0808C21.7154 10.0808 21.5664 9.91661 21.5664 9.71959ZM22.245 9.71959C22.245 9.55541 22.0961 9.40765 21.9305 9.40765C21.765 9.40765 21.6161 9.539 21.6161 9.71959C21.6161 9.88377 21.765 10.0315 21.9305 10.0315C22.0961 10.0315 22.245 9.88377 22.245 9.71959Z" fill="#0039A6"/>
<path d="M21.8008 9.52246H21.8835C21.9663 9.52246 22.0656 9.52246 22.0656 9.62097C22.0656 9.67022 22.0325 9.70306 21.9829 9.71948C21.9994 9.71948 22.016 9.73589 22.0325 9.75231L22.0987 9.90007H22.016L21.9663 9.76873C21.9497 9.73589 21.9497 9.73589 21.9166 9.73589H21.8835V9.90007H21.8008V9.52246ZM21.8835 9.68664H21.9166C21.9497 9.68664 21.9994 9.68664 21.9994 9.63739C21.9994 9.58813 21.9497 9.58813 21.9166 9.58813H21.8835V9.68664Z" fill="#0039A6"/>
</svg>
