<svg width="24" height="8" viewBox="0 0 24 8" fill="none" xmlns="http://www.w3.org/2000/svg">
<g clip-path="url(#clip0_203_6512)">
<path d="M18.168 3.19158C17.604 2.98526 17.428 2.86316 17.428 2.64C17.428 2.39158 17.624 2.24421 17.972 2.24421C18.256 2.24421 18.54 2.32842 18.752 2.41684L18.844 1.33895C18.584 1.26316 18.268 1.20421 17.924 1.20421C16.784 1.20421 16.052 1.88632 16.052 2.78737C16.044 3.36 16.408 3.90316 17.36 4.24421C17.896 4.43368 18.036 4.55158 18.036 4.79579C18.036 5.04421 17.856 5.2 17.424 5.2C17.004 5.2 16.46 5.00211 16.192 4.83368L15.94 5.91158C16.288 6.10947 16.82 6.24842 17.428 6.24842C18.748 6.24842 19.42 5.58737 19.42 4.68211C19.412 3.97053 19.048 3.50737 18.168 3.19158ZM21.628 5.02316C21.196 5.02316 21.064 4.75789 21.064 4.17263V0L19.664 0.336842V1.30947H19.132L19.036 2.41684H19.668V4.39158C19.668 5.07368 19.8 5.53684 20.064 5.82737C20.288 6.07579 20.672 6.24421 21.132 6.24421C21.536 6.24421 21.872 6.19368 22.06 6.11368L22.052 4.97684C21.948 4.99789 21.808 5.01895 21.628 5.02316ZM21.176 2.42105H22.052V1.30947H21.176V2.42105ZM5.3 3.81474C5.272 3.07368 5.248 2.17684 5.248 1.28H5.22C5.032 2.06737 4.776 2.94737 4.54 3.66737L3.796 6.07579H2.72L2.068 3.68421C1.868 2.96 1.66 2.08 1.516 1.27579H1.5C1.464 2.10526 1.436 3.06105 1.392 3.83158L1.284 6.17263H0L0.388 0.00421053H2.228L2.824 2.06316C3.012 2.77474 3.204 3.54947 3.34 4.26947H3.368C3.54 3.55789 3.748 2.73684 3.948 2.05474L4.6 0.00421053H6.404L6.74 6.17263H5.388L5.3 3.81474ZM12.872 4.21053C12.92 4.83368 13.5 5.12842 14.172 5.12842C14.66 5.12842 15.052 5.06105 15.444 4.93053L15.632 5.94947C15.164 6.14737 14.592 6.24421 13.968 6.24421C12.408 6.24421 11.516 5.29684 11.516 3.78105C11.516 2.55579 12.24 1.2 13.836 1.2C15.324 1.2 15.884 2.41263 15.884 3.61263C15.884 3.86947 15.856 4.09684 15.836 4.20632L12.872 4.21053ZM14.556 3.17895C14.556 2.81263 14.404 2.20211 13.748 2.20211C13.148 2.20211 12.904 2.77474 12.868 3.17895H14.556Z" fill="#0862AF"/>
<path d="M23.034 0.00852899L24.002 1.86537L23.034 3.73063H22.054L23.022 1.86537L22.05 0.00852899H23.034C23.034 0.00431846 23.034 0.00431846 23.034 0.00852899ZM11.054 8.00011H7.11797V6.97274H11.054V8.00011ZM8.27397 4.20642C8.32197 4.82958 8.90197 5.12432 9.57397 5.12432C10.062 5.12432 10.454 5.05695 10.846 4.92642L11.034 5.94537C10.566 6.14327 9.99397 6.24011 9.36997 6.24011C7.80997 6.24011 6.91797 5.29274 6.91797 3.77695C6.91797 2.55169 7.64197 1.1959 9.23797 1.1959C10.726 1.1959 11.286 2.40853 11.286 3.60853C11.286 3.86537 11.258 4.09274 11.238 4.20221H8.27397V4.20642ZM9.95797 3.17484C9.95797 2.80853 9.80597 2.198 9.14997 2.198C8.54997 2.198 8.30597 2.77063 8.26597 3.17484H9.95797Z" fill="#ED1C24"/>
</g>
<defs>
<clipPath id="clip0_203_6512">
<rect width="24" height="8" fill="white"/>
</clipPath>
</defs>
</svg>
