<svg width="26" height="6" viewBox="0 0 26 6" fill="none" xmlns="http://www.w3.org/2000/svg">
<path d="M25.7176 2.65818C25.7176 1.25412 24.6881 0.266602 23.2447 0.266602C21.4073 0.266602 20.1758 1.53493 20.1758 3.34616C20.1758 4.75958 21.2152 5.73774 22.6832 5.73774C24.0181 5.73774 25.0132 5.12464 25.4221 4.14648H23.9393C23.7423 4.45069 23.3235 4.64258 22.8112 4.64258C22.0231 4.64258 21.5305 4.14648 21.4861 3.44445H25.6339C25.6881 3.17768 25.7176 2.94835 25.7176 2.65818ZM21.5994 2.49437C21.7324 1.8485 22.3925 1.33368 23.1905 1.33368C23.8802 1.33368 24.4024 1.81106 24.4024 2.49437H21.5994Z" fill="#2E4369"/>
<path d="M16.1914 5.61128L16.4574 4.26338C17.2702 4.41783 17.3934 3.98257 17.6052 2.93421L17.7086 2.41471C18.0042 0.949812 18.6003 0.219703 20.3047 0.416271L20.0387 1.76416C19.2259 1.60972 19.083 2.19474 18.9008 3.1027L18.7973 3.6222C18.5017 5.10582 17.886 5.80785 16.1914 5.61128Z" fill="#2E4369"/>
<path d="M14.1992 5.61567L15.2041 0.392578H16.5293L15.5293 5.61567H14.1992Z" fill="#2E4369"/>
<path d="M6.60938 0.392578H7.89509L8.31381 4.16949L9.99853 0.392578H11.2744L11.7227 4.20693L13.3483 0.392578H14.6291L12.299 5.61567H10.8409L10.368 2.02128L8.75715 5.61567H7.34829L6.60938 0.392578Z" fill="#2E4369"/>
<path d="M1.80834 1.77791L0.28125 3.16325H2.87731L3.14825 2.55951H1.83297L2.65563 1.77791L2.1778 0.996322H4.40933L2.35022 5.61567H3.12361L5.45366 0.392578H0.951201L1.80834 1.77791Z" fill="#00B9FF"/>
</svg>
