<svg width="27" height="6" viewBox="0 0 27 6" fill="none" xmlns="http://www.w3.org/2000/svg">
<path d="M9.03673 1.47168H8.89403C8.75473 1.47168 8.69358 1.51444 8.60185 1.67477L7.8408 2.96812L7.52483 1.68902C7.48746 1.53581 7.44669 1.47524 7.28701 1.47524H7.1681C7.01181 1.47524 6.91328 1.57144 6.88271 1.74246L6.52936 3.82322C6.50218 3.97999 6.57013 4.06194 6.69924 4.06194H6.7536C6.8895 4.06194 6.95066 3.99068 6.97444 3.83748L7.25983 2.15577L7.53503 3.28166C7.55881 3.39567 7.57919 3.47049 7.78644 3.47049C7.95972 3.47049 8.00049 3.40636 8.06164 3.30303L8.73435 2.14508L8.44896 3.82679C8.42178 3.98712 8.48973 4.0655 8.61543 4.0655H8.67319C8.80909 4.0655 8.87025 3.99068 8.89403 3.84104L9.24397 1.74603C9.27455 1.57857 9.19641 1.47168 9.03673 1.47168Z" fill="black"/>
<path d="M11.1591 2.96096C11.1421 2.45502 10.8159 2.08447 10.2655 2.08447C9.637 2.08447 9.25309 2.62248 9.27007 3.21036C9.29046 3.74837 9.6438 4.09397 10.1636 4.09397C10.8091 4.09041 11.1761 3.54884 11.1591 2.96096ZM10.167 3.72343C9.87143 3.72343 9.68457 3.49896 9.67438 3.19255C9.66079 2.79706 9.9088 2.44789 10.2621 2.44789C10.5339 2.44789 10.748 2.67236 10.7582 2.98233C10.7684 3.3992 10.5204 3.72343 10.167 3.72343Z" fill="black"/>
<path d="M12.564 2.08447C12.3024 2.08447 12.0952 2.21986 11.9559 2.44789C11.9695 2.1878 11.8336 2.11298 11.6943 2.11298C11.6297 2.11298 11.5787 2.13079 11.5753 2.13792L11.29 3.83032C11.2628 4.0049 11.3545 4.05478 11.4768 4.05478H11.5278C11.6603 4.05478 11.7146 3.99777 11.7418 3.83032L11.9117 2.81488C12.034 2.59041 12.1699 2.48352 12.3806 2.48352C12.5912 2.48352 12.7169 2.61535 12.7203 2.83269C12.7237 2.8897 12.7101 2.96096 12.6999 3.04647L12.5674 3.83032C12.5402 4.0049 12.6354 4.05478 12.7543 4.05478H12.8052C12.9377 4.05478 12.9921 3.99777 13.0193 3.83032L13.1654 2.96452C13.1824 2.86832 13.1926 2.78281 13.1892 2.70443C13.179 2.341 12.9479 2.08447 12.564 2.08447Z" fill="black"/>
<path d="M20.6018 2.08447C20.3877 2.08447 20.2281 2.21274 20.1193 2.44789C20.1363 2.1878 20.0004 2.11298 19.8611 2.11298C19.7932 2.11298 19.7456 2.13079 19.7422 2.13792L19.4534 3.83032C19.4262 4.0049 19.535 4.05478 19.6573 4.05478H19.7082C19.8238 4.05478 19.8781 3.99777 19.9087 3.83032L20.0038 3.26381C20.0752 2.822 20.2315 2.51559 20.4829 2.51559C20.6052 2.51559 20.6833 2.56903 20.7343 2.6296C20.7411 2.63673 20.9314 2.55834 20.9246 2.32319C20.9144 2.17711 20.7751 2.08447 20.6018 2.08447Z" fill="black"/>
<path d="M22.7956 2.11312C22.6189 2.11312 22.5204 2.20219 22.4627 2.43735C22.3505 2.21645 22.1195 2.08105 21.8511 2.08105C21.2803 2.08105 20.8828 2.6155 20.8828 3.2212C20.8828 3.72001 21.175 4.09056 21.6371 4.09056C21.9191 4.09056 22.1365 3.96942 22.2758 3.72357C22.2554 3.9801 22.303 4.05849 22.4796 4.05849C22.6359 4.05849 22.6869 3.99792 22.7039 3.81621C22.7243 3.48129 22.833 2.93616 22.9587 2.17013C22.9587 2.15588 22.8873 2.11312 22.7956 2.11312ZM21.7356 3.72357C21.457 3.72357 21.2973 3.5383 21.2973 3.21051C21.2973 2.82571 21.5114 2.44091 21.9089 2.44091C22.2316 2.44091 22.3675 2.69032 22.3675 2.96466C22.3675 3.31027 22.1433 3.72357 21.7356 3.72357Z" fill="black"/>
<path d="M25.505 2.08447C25.1924 2.08447 24.9852 2.25193 24.8391 2.49777C24.7678 2.23768 24.5537 2.08447 24.2819 2.08447C24.0441 2.08447 23.8368 2.20205 23.6941 2.42651C23.7009 2.1878 23.5684 2.11654 23.4325 2.11654C23.3646 2.11654 23.317 2.13435 23.3136 2.14148L23.0282 3.83387C23.0011 4.00846 23.0928 4.05834 23.2151 4.05834H23.2661C23.3816 4.05834 23.4529 4.00846 23.4801 3.83387L23.6568 2.78281C23.7859 2.57259 23.9082 2.48352 24.0985 2.48352C24.2853 2.48352 24.4008 2.6296 24.4008 2.8505C24.4008 2.88613 24.3974 2.92532 24.3906 2.96808L24.2479 3.83387C24.2208 4.00846 24.3159 4.05834 24.4348 4.05834H24.4824C24.5979 4.05834 24.6726 4.00489 24.6998 3.83387L24.8765 2.78281C25.0056 2.57259 25.1279 2.48352 25.3182 2.48352C25.4982 2.48352 25.6307 2.59753 25.6307 2.83269C25.6307 2.8897 25.6205 2.96095 25.6069 3.04646L25.4744 3.83031C25.4473 4.00489 25.539 4.05477 25.6613 4.05477H25.7123C25.8448 4.05477 25.8991 3.99777 25.9263 3.83031L26.0724 2.96452C26.0894 2.86832 26.0962 2.78281 26.0962 2.70442C26.0996 2.32319 25.855 2.08447 25.505 2.08447Z" fill="black"/>
<path d="M15.2514 2.93225C15.2514 2.6686 15.2005 2.49401 15.0884 2.34081C14.9661 2.17691 14.7384 2.07715 14.4734 2.07715C13.6716 2.07715 13.3828 2.6971 13.3828 3.2351C13.3828 3.74817 13.7362 4.09021 14.2798 4.09021C14.8234 4.09021 15.1291 3.83724 15.1291 3.63415C15.1291 3.49876 15.0374 3.45244 14.9321 3.44175C14.7894 3.63415 14.5923 3.72679 14.3239 3.72679C14.0861 3.72679 13.8041 3.63059 13.7837 3.18522H15.017C15.1495 3.18879 15.2514 3.1104 15.2514 2.93225ZM14.8539 2.87168H13.8245C13.923 2.59734 14.1506 2.42632 14.4394 2.42632C14.5855 2.42632 14.6976 2.46907 14.7724 2.55458C14.8369 2.63297 14.8607 2.73986 14.8539 2.87168Z" fill="black"/>
<path d="M19.0802 2.67238H18.3463C18.258 2.67238 18.2172 2.69376 18.19 2.72226C18.1459 2.77214 18.1221 2.88615 18.1221 2.93604C18.1255 3.01442 18.19 3.06074 18.3089 3.06074H18.8288C18.7574 3.44197 18.5264 3.70563 18.1289 3.70563C17.711 3.70563 17.4324 3.42772 17.4154 2.95385C17.395 2.35884 17.7721 1.86715 18.3055 1.86715C18.6181 1.86715 18.8627 2.04174 18.9613 2.27333C18.9749 2.29114 19.2636 2.29114 19.2535 2.03105C19.2501 1.93841 19.1991 1.82796 19.104 1.73532C18.9511 1.57499 18.6623 1.43604 18.2784 1.43604C17.7416 1.43604 17.3169 1.74601 17.096 2.19494C17.096 2.19138 17.0926 2.19138 17.0926 2.19138C17.0485 2.13081 16.9771 2.10231 16.9058 2.10231C16.7869 2.10231 16.7087 2.1415 16.5932 2.35528L16.0224 3.40634L15.8084 2.35884C15.7676 2.16288 15.6996 2.10231 15.5807 2.10231C15.4414 2.10231 15.3293 2.20919 15.3327 2.23414L15.7404 3.92653L15.3191 4.65338C15.275 4.73176 15.2716 4.83508 15.4312 4.83508H15.5196C15.6861 4.83508 15.7404 4.7282 15.822 4.58212L16.9703 2.54411C16.9363 2.68663 16.9194 2.83984 16.9261 2.99661C16.9465 3.68069 17.3882 4.09399 18.0337 4.09399C18.3395 4.09399 18.5841 3.97285 18.72 3.78758C18.7098 3.9871 18.8118 4.06549 18.9477 4.06549C19.0224 4.06549 19.0768 4.04055 19.0768 4.0263L19.2636 2.92891C19.2942 2.75789 19.2331 2.67238 19.0802 2.67238Z" fill="black"/>
<path d="M26.5833 3.84824C26.5969 3.87318 26.6071 3.88387 26.6241 3.88387C26.6241 3.88387 26.6275 3.91238 26.5935 3.91238C26.5731 3.91238 26.5595 3.90169 26.5391 3.8625L26.5018 3.79123H26.4678L26.4508 3.891C26.4474 3.90525 26.4406 3.91238 26.427 3.91238H26.4202C26.4066 3.91238 26.3998 3.90525 26.4032 3.88744L26.4508 3.6309C26.4542 3.61308 26.4644 3.60596 26.4814 3.60596H26.5527C26.6173 3.60596 26.6547 3.63446 26.6547 3.68434C26.6547 3.74492 26.6173 3.78411 26.5527 3.78767L26.5833 3.84824ZM26.5391 3.75204C26.5833 3.75204 26.6071 3.7271 26.6037 3.68791C26.6037 3.6594 26.5833 3.64159 26.5459 3.64159H26.495L26.4746 3.74848H26.5391V3.75204Z" fill="black"/>
<path d="M26.5286 3.5242C26.6611 3.5242 26.7664 3.63822 26.7664 3.77361C26.7664 3.91256 26.6577 4.02301 26.5286 4.02301C26.3961 4.02301 26.2908 3.909 26.2908 3.77361C26.2874 3.63822 26.3961 3.5242 26.5286 3.5242ZM26.5286 3.48145C26.3757 3.48145 26.25 3.61327 26.25 3.77361C26.25 3.93394 26.3757 4.06577 26.5286 4.06577C26.6815 4.06577 26.8072 3.93394 26.8072 3.77361C26.8072 3.61327 26.6815 3.48145 26.5286 3.48145Z" fill="black"/>
<path d="M2.88172 5.82564C4.3697 5.82564 5.57595 4.56065 5.57595 3.00022C5.57595 1.43979 4.3697 0.174805 2.88172 0.174805C1.39375 0.174805 0.1875 1.43979 0.1875 3.00022C0.1875 4.56065 1.39375 5.82564 2.88172 5.82564Z" fill="white"/>
<path d="M5.57595 3.00022C5.57595 4.56079 4.36983 5.82564 2.88172 5.82564C1.39362 5.82564 0.1875 4.56079 0.1875 3.00022C0.1875 2.5691 0.279233 2.16293 0.442313 1.79951C0.333593 2.08811 0.28263 2.3767 0.28263 2.64393C0.28263 3.92302 1.26791 4.1083 1.6858 4.10473C2.32453 4.09761 3.06859 3.76982 3.69713 3.16412C3.69713 3.16412 3.61559 3.64155 3.5918 3.78763C3.56802 3.93015 3.65636 4.05485 3.79226 4.05485H3.84662C3.98591 4.05485 4.08784 3.93371 4.11162 3.78763L4.33926 2.45509C4.36644 2.30545 4.2747 2.18787 4.13201 2.18787H2.86134C2.71864 2.18787 2.58954 2.26625 2.56576 2.4159C2.56576 2.42302 2.55556 2.46578 2.55556 2.47647C2.53518 2.61899 2.63031 2.72587 2.76621 2.72587H3.42872C3.41853 2.73656 3.40834 2.74725 3.39815 2.75794C2.93948 3.21043 2.3721 3.45984 1.90324 3.45984C1.43778 3.45984 0.914567 3.14986 0.914567 2.45509C0.914567 1.0121 2.20562 0.174805 2.88172 0.174805C4.36644 0.174805 5.57595 1.43965 5.57595 3.00022Z" fill="#DF2127"/>
</svg>
