<?xml version="1.0" standalone="no"?>
<!DOCTYPE svg PUBLIC "-//W3C//DTD SVG 20010904//EN"
 "http://www.w3.org/TR/2001/REC-SVG-20010904/DTD/svg10.dtd">
<svg version="1.0" xmlns="http://www.w3.org/2000/svg"
 width="500.000000pt" height="500.000000pt" viewBox="0 0 500.000000 500.000000"
 preserveAspectRatio="xMidYMid meet">
<metadata>
Created by potrace 1.14, written by Peter Selinger 2001-2017
</metadata>
<g transform="translate(0.000000,500.000000) scale(0.100000,-0.100000)"
fill="#000000" stroke="none">
<path d="M2215 4984 c-497 -62 -945 -255 -1320 -567 -94 -78 -283 -274 -356
-367 -173 -223 -321 -493 -403 -738 -26 -78 -49 -150 -51 -160 -2 -9 -15 -66
-29 -127 -24 -106 -28 -136 -44 -275 -14 -130 -6 -547 13 -602 2 -7 6 -31 9
-54 8 -64 54 -262 77 -334 101 -305 238 -565 428 -810 91 -118 316 -340 438
-433 322 -245 723 -421 1098 -481 17 -2 66 -10 110 -17 103 -17 524 -17 625
-1 41 7 89 14 105 16 17 3 50 9 75 15 25 5 56 12 70 14 14 3 45 10 70 17 25 7
50 13 55 14 71 14 317 113 450 181 249 127 450 274 640 468 61 62 121 126 135
142 42 50 165 218 190 260 13 22 28 42 32 43 4 2 8 8 8 13 0 4 19 41 43 81
129 220 256 592 291 853 29 209 29 547 1 725 -76 478 -263 890 -574 1265 -30
36 -244 250 -286 285 -280 237 -646 425 -1004 515 -100 25 -124 29 -231 45
-36 6 -78 13 -95 16 -64 12 -472 11 -570 -2z"/>
</g>
</svg>
